<?xml version="1.0" standalone="no"?>
<!DOCTYPE svg PUBLIC "-//W3C//DTD SVG 20010904//EN"
 "http://www.w3.org/TR/2001/REC-SVG-20010904/DTD/svg10.dtd">
<svg version="1.0" xmlns="http://www.w3.org/2000/svg"
 width="2362.000000pt" height="2362.000000pt" viewBox="0 0 2362.000000 2362.000000"
 preserveAspectRatio="xMidYMid meet">

<g transform="translate(0.000000,2362.000000) scale(0.100000,-0.100000)"
fill="#000000" stroke="none">
<path d="M11750 21644 c-18 -30 -29 -58 -26 -61 3 -4 -3 -12 -14 -20 -11 -8
-20 -23 -20 -34 0 -10 -4 -19 -8 -19 -8 0 -32 -43 -32 -57 0 -3 11 -3 24 -1
28 6 26 -11 -4 -30 -17 -10 -20 -10 -20 3 0 8 -4 15 -8 15 -9 0 -76 -114 -73
-125 1 -3 -5 -13 -14 -21 -17 -17 -20 -34 -6 -34 5 0 11 -11 13 -25 6 -27 -9
-35 -18 -10 -10 25 -21 17 -53 -37 l-30 -53 22 -13 c21 -12 21 -12 -5 -6 -38
8 -35 -8 4 -26 18 -8 33 -21 34 -28 1 -7 0 -8 -3 -2 -2 5 -14 10 -25 10 -17 0
-20 -5 -16 -30 3 -17 1 -33 -4 -36 -4 -3 -8 -42 -8 -88 0 -97 -10 -115 -68
-123 -23 -3 -42 -11 -42 -17 0 -6 -4 -5 -9 3 -5 7 -14 10 -20 7 -15 -9 -15
-206 0 -206 5 0 7 5 3 11 -4 7 2 7 17 -1 37 -20 173 -5 237 26 66 32 106 89
107 151 0 22 3 39 8 36 4 -2 7 21 7 51 0 43 -3 56 -15 56 -8 0 -15 5 -15 10 0
6 9 10 20 10 15 0 20 7 20 26 0 14 -4 23 -9 19 -5 -3 -12 -1 -16 5 -3 5 1 10
9 10 12 0 16 11 16 49 0 41 10 66 67 167 50 88 66 127 65 151 -3 33 14 47 20
18 2 -8 44 58 95 147 51 89 90 165 87 170 -3 4 -63 8 -134 8 l-129 0 -31 -56z
m199 -20 c-15 -18 -22 -13 -13 10 3 9 10 13 16 10 5 -3 4 -12 -3 -20z m-174
-84 c-3 -5 -16 -10 -28 -9 -20 1 -20 2 3 9 14 4 26 8 28 9 2 1 0 -3 -3 -9z
m21 -90 c0 -11 -6 -20 -12 -20 -7 0 -10 8 -7 20 3 11 8 20 12 20 4 0 7 -9 7
-20z m-99 -72 c-3 -8 -6 -5 -6 6 -1 11 2 17 5 13 3 -3 4 -12 1 -19z m-47 -38
c0 -5 -4 -10 -10 -10 -5 0 -10 5 -10 10 0 6 5 10 10 10 6 0 10 -4 10 -10z
m-10 -41 c0 -6 -4 -7 -10 -4 -5 3 -10 11 -10 16 0 6 5 7 10 4 6 -3 10 -11 10
-16z m-37 -129 c-5 -19 -23 -29 -23 -12 0 7 20 32 26 32 1 0 0 -9 -3 -20z m57
-26 c0 -14 -4 -23 -10 -19 -5 3 -10 15 -10 26 0 10 5 19 10 19 6 0 10 -12 10
-26z m-130 -25 c0 -6 -4 -7 -10 -4 -5 3 -10 11 -10 16 0 6 5 7 10 4 6 -3 10
-11 10 -16z m140 -120 c0 -4 -7 -6 -15 -3 -8 4 -15 10 -15 15 0 4 7 6 15 3 8
-4 15 -10 15 -15z m-30 -74 c0 -8 -4 -15 -10 -15 -5 0 -7 7 -4 15 4 8 8 15 10
15 2 0 4 -7 4 -15z m15 -115 c3 -5 1 -10 -4 -10 -6 0 -11 5 -11 10 0 6 2 10 4
10 3 0 8 -4 11 -10z m-255 -44 c0 -2 -8 -10 -17 -17 -16 -13 -17 -12 -4 4 13
16 21 21 21 13z m-42 -67 c-18 -10 -25 -39 -9 -39 4 0 8 -13 7 -29 -1 -16 -5
-27 -9 -24 -5 3 -7 14 -4 24 3 12 0 19 -9 19 -8 0 -14 5 -14 11 0 21 21 49 38
49 16 -1 16 -1 0 -11z m252 -14 c-7 -9 -15 -13 -19 -10 -3 3 1 10 9 15 21 14
24 12 10 -5z m-166 -14 c3 -5 -8 -11 -25 -13 -35 -5 -50 8 -17 15 13 2 26 5
30 6 4 0 9 -3 12 -8z m-19 -69 c-3 -3 -11 0 -18 7 -9 10 -8 11 6 5 10 -3 15
-9 12 -12z"/>
<path d="M11169 21688 c-10 -35 -4 -57 32 -113 22 -36 44 -65 49 -65 4 0 7 -6
6 -12 0 -7 33 -68 74 -136 41 -67 81 -134 88 -147 7 -14 17 -25 22 -25 8 0
125 193 132 217 2 6 -33 72 -77 147 l-80 136 -122 0 c-68 0 -123 -1 -124 -2z
m51 -63 c0 -8 5 -15 11 -15 5 0 7 -5 3 -12 -5 -7 -11 -5 -21 7 -16 22 -17 35
-3 35 6 0 10 -7 10 -15z m143 -15 c3 -11 1 -20 -4 -20 -5 0 -9 9 -9 20 0 11 2
20 4 20 2 0 6 -9 9 -20z m77 -116 c0 -8 9 -14 20 -14 11 0 20 7 20 15 0 9 6
12 16 8 11 -4 12 -8 4 -13 -8 -5 -7 -9 4 -13 9 -4 16 -11 16 -17 0 -6 -8 -5
-20 2 -17 11 -22 10 -29 -1 -8 -12 -11 -12 -23 0 -16 16 -31 62 -17 53 5 -3 9
-12 9 -20z m-16 -40 c23 -9 20 -23 -4 -17 -11 3 -20 9 -20 14 0 11 3 11 24 3z
m72 -44 c1 -22 -2 -27 -13 -23 -8 3 -19 0 -23 -7 -4 -7 -13 -9 -19 -5 -8 4 -3
13 14 27 14 10 25 27 25 35 0 28 14 4 16 -27z"/>
<path d="M13435 21548 c-47 -202 -55 -243 -51 -254 3 -8 1 -16 -3 -19 -5 -3
-16 -38 -26 -80 -16 -75 -11 -115 17 -115 6 0 8 -3 5 -7 -4 -3 -15 1 -26 11
-18 16 -19 15 -31 -50 -11 -55 -10 -68 1 -75 11 -7 10 -9 -3 -9 -10 0 -18 -2
-18 -3 0 -2 -23 -104 -50 -227 -28 -123 -48 -225 -46 -227 2 -2 58 -17 125
-32 l120 -28 14 61 c8 34 10 63 5 64 -4 2 -8 8 -8 13 0 6 4 7 10 4 5 -3 12 7
16 22 3 15 10 43 15 62 6 24 5 39 -3 49 -10 11 -8 17 7 28 13 10 19 27 20 53
0 21 3 37 6 35 8 -5 42 161 36 178 -2 7 2 21 10 30 8 9 16 39 16 66 1 28 5 48
8 46 9 -5 33 112 25 124 -3 6 -2 12 4 14 15 5 21 66 7 65 -30 -1 -47 4 -47 12
0 6 15 7 33 4 l34 -5 12 58 c6 33 14 68 17 80 5 19 -3 22 -98 43 -57 12 -113
25 -125 28 -17 4 -23 0 -28 -19z m105 -243 c0 -13 -4 -14 -20 -5 -11 6 -20 13
-20 15 0 3 9 5 20 5 11 0 20 -7 20 -15z m-69 -135 l7 -35 -24 30 c-28 35 -30
48 -7 43 11 -2 20 -17 24 -38z m106 34 c-3 -3 -12 -4 -19 -1 -8 3 -5 6 6 6 11
1 17 -2 13 -5z m-47 -24 c0 -5 -4 -10 -9 -10 -6 0 -13 5 -16 10 -3 6 1 10 9
10 9 0 16 -4 16 -10z m-82 -147 c-9 -10 -13 -24 -11 -30 3 -7 0 -13 -5 -13 -6
0 -12 -6 -14 -13 -2 -9 -11 -11 -28 -6 -20 6 -21 7 -5 8 13 1 25 13 34 34 14
32 31 50 40 42 2 -3 -3 -13 -11 -22z m-33 -3 c3 -5 1 -10 -4 -10 -6 0 -11 5
-11 10 0 6 2 10 4 10 3 0 8 -4 11 -10z m96 -15 c15 10 10 -11 -5 -24 -12 -10
-19 -8 -35 8 -21 21 -21 21 -1 21 11 0 21 6 21 13 1 6 3 4 6 -6 2 -9 9 -15 14
-12z m9 -49 c0 -8 -4 -18 -10 -21 -5 -3 -10 3 -10 14 0 12 5 21 10 21 6 0 10
-6 10 -14z m-72 -16 c-14 -22 -24 -19 -15 5 4 8 11 15 17 15 6 0 6 -7 -2 -20z
m32 -74 c0 -3 -4 -8 -10 -11 -5 -3 -10 -1 -10 4 0 6 5 11 10 11 6 0 10 -2 10
-4z m-50 -196 c0 -5 -4 -10 -10 -10 -5 0 -10 5 -10 10 0 6 5 10 10 10 6 0 10
-4 10 -10z m60 -20 c0 -5 -5 -10 -11 -10 -5 0 -7 5 -4 10 3 6 8 10 11 10 2 0
4 -4 4 -10z"/>
<path d="M13986 21409 c-68 -17 -120 -49 -156 -97 -49 -65 -124 -137 -158
-151 -27 -11 -30 -20 -59 -149 l-30 -137 140 -265 c77 -146 141 -266 142 -267
2 -5 279 -63 286 -61 5 2 -74 155 -176 342 -101 186 -182 343 -179 348 4 6 -2
7 -15 3 -11 -3 -21 -4 -21 -1 0 2 24 12 53 20 67 20 125 60 204 143 l61 66 79
-7 c107 -9 130 -14 166 -33 11 -6 28 47 22 68 -8 23 -23 24 -47 2 -10 -9 -21
-13 -26 -9 -11 12 31 38 55 33 24 -4 40 23 45 78 l3 29 -100 23 c-118 27 -235
36 -289 22z m334 -93 c0 -24 -16 -27 -35 -6 -18 19 -17 20 8 20 17 0 27 -5 27
-14z m-322 -175 c3 -8 -1 -12 -9 -9 -7 2 -15 10 -17 17 -3 8 1 12 9 9 7 -2 15
-10 17 -17z m-181 -38 c10 -10 14 -15 9 -10 -6 4 -23 7 -38 7 -15 0 -28 5 -28
10 0 16 36 11 57 -7z m143 7 c0 -5 -4 -10 -10 -10 -5 0 -10 5 -10 10 0 6 5 10
10 10 6 0 10 -4 10 -10z m-30 -35 c-7 -9 -15 -13 -17 -11 -7 7 7 26 19 26 6 0
6 -6 -2 -15z m-167 -28 c-3 -4 -6 -7 -7 -5 -1 2 -8 12 -16 22 -14 18 -14 18 7
6 12 -8 19 -18 16 -23z m-129 -163 c21 -8 20 -21 -2 -26 -12 -4 -18 1 -18 13
0 22 -1 21 20 13z m56 -9 c0 -8 -4 -15 -10 -15 -5 0 -10 7 -10 15 0 8 5 15 10
15 6 0 10 -7 10 -15z m95 -55 c-3 -5 -10 -10 -16 -10 -5 0 -9 5 -9 10 0 6 7
10 16 10 8 0 12 -4 9 -10z m-17 -79 c-16 -6 -31 16 -24 36 7 16 9 16 21 -7 9
-16 10 -26 3 -29z m87 -81 c1 -11 -2 -20 -7 -20 -4 0 -8 12 -8 27 0 30 13 24
15 -7z m-13 -95 c0 -5 -5 -11 -11 -13 -6 -2 -11 4 -11 13 0 9 5 15 11 13 6 -2
11 -8 11 -13z"/>
<path d="M8195 21045 c-77 -18 -228 -79 -218 -89 4 -4 0 -4 -9 -1 -15 6 -78
-19 -78 -30 0 -9 72 -185 76 -185 2 0 50 18 106 40 131 51 154 55 200 36 30
-13 39 -24 47 -53 9 -36 11 -106 2 -97 -2 2 -20 -9 -40 -24 -20 -16 -78 -44
-130 -63 -51 -19 -96 -40 -98 -47 -5 -12 53 -169 66 -176 3 -2 51 14 106 37
82 33 113 41 173 42 49 1 71 -2 69 -9 -3 -6 4 -21 15 -32 11 -12 22 -44 26
-70 6 -42 11 -49 32 -52 26 -4 53 -22 32 -22 -7 0 -12 -7 -12 -15 0 -8 5 -15
10 -15 6 0 10 -4 10 -10 0 -16 -46 -12 -60 5 -11 13 -10 14 3 10 20 -8 34 15
16 26 -20 13 -39 11 -39 -3 0 -15 -63 -68 -100 -85 -14 -6 -60 -23 -102 -38
-43 -15 -78 -31 -78 -36 0 -5 16 -50 36 -100 29 -72 40 -89 53 -84 9 4 58 23
108 42 51 20 90 39 88 44 -3 4 -1 10 5 14 6 4 7 12 3 18 -3 7 2 5 13 -4 17
-14 23 -15 52 -3 28 12 31 17 22 34 -6 11 -15 20 -21 20 -6 0 -8 4 -4 9 3 6
18 3 35 -7 29 -17 29 -17 70 23 23 22 50 57 61 78 l20 37 -31 6 c-32 7 -39 18
-15 28 22 8 18 23 -6 29 -13 4 -18 10 -14 17 5 9 9 9 14 1 5 -8 15 -7 34 2 25
11 27 16 23 62 -5 61 -43 138 -89 183 -37 36 -116 69 -190 78 -51 7 -56 16
-10 18 27 1 28 2 27 59 -1 31 3 57 7 57 20 0 7 31 -21 52 -35 25 -39 38 -10
31 11 -3 20 -10 20 -15 0 -5 8 -8 18 -6 9 1 23 -1 31 -6 10 -7 12 -2 6 25 -4
19 -12 40 -17 47 -6 6 -8 12 -4 12 4 0 0 13 -8 28 -19 37 -90 100 -131 118
-51 21 -134 25 -200 9z m-40 -105 c-3 -5 -12 -10 -18 -10 -7 0 -6 4 3 10 19
12 23 12 15 0z m250 -38 c-3 -3 -11 0 -18 7 -9 10 -8 11 6 5 10 -3 15 -9 12
-12z m-111 -27 c-4 -8 -10 -12 -15 -9 -14 8 -10 24 6 24 9 0 12 -6 9 -15z
m131 -14 c3 -6 -3 -15 -14 -20 -15 -9 -20 -7 -24 9 -4 15 0 20 13 20 11 0 21
-4 25 -9z m-77 -40 c3 -8 -1 -12 -9 -9 -7 2 -15 10 -17 17 -3 8 1 12 9 9 7 -2
15 -10 17 -17z m86 -136 c-22 -16 -44 -19 -44 -6 0 8 16 14 54 20 6 0 1 -6
-10 -14z m107 -109 c-15 -18 9 -39 35 -30 14 4 13 1 -5 -14 -14 -11 -31 -18
-38 -15 -13 5 -18 54 -6 66 12 13 25 7 14 -7z m106 -36 c6 -8 9 -18 6 -23 -2
-4 0 -14 6 -21 8 -9 8 -22 2 -38 -6 -15 -5 -31 1 -42 9 -15 7 -17 -10 -12 -25
8 -33 -3 -25 -33 5 -18 11 -21 32 -17 25 6 25 6 7 -9 -11 -8 -24 -15 -29 -15
-5 0 -7 -6 -4 -12 2 -7 10 -12 16 -10 6 1 11 -9 11 -23 0 -30 -16 -32 -50 -5
-20 16 -22 22 -11 29 11 7 11 15 1 46 -11 33 -10 39 4 47 9 5 16 18 16 28 0
10 5 22 10 25 8 5 8 11 0 20 -6 7 -8 25 -4 39 5 20 2 26 -10 26 -9 0 -16 5
-16 10 0 15 33 8 47 -10z m-81 -117 c-10 -10 -19 5 -10 18 6 11 8 11 12 0 2
-7 1 -15 -2 -18z m156 -97 c-3 -5 -9 -1 -13 10 -12 31 -10 39 5 19 8 -11 12
-24 8 -29z m-302 -186 c0 -5 -5 -10 -11 -10 -5 0 -7 5 -4 10 3 6 8 10 11 10 2
0 4 -4 4 -10z m55 -10 c3 -5 1 -10 -4 -10 -6 0 -11 5 -11 10 0 6 2 10 4 10 3
0 8 -4 11 -10z m-88 -6 c-3 -3 -12 -4 -19 -1 -8 3 -5 6 6 6 11 1 17 -2 13 -5z
m-27 -60 c0 -16 -9 -18 -28 -6 -7 5 -10 16 -6 26 5 13 9 14 20 5 8 -6 14 -18
14 -25z m95 16 c-3 -5 -13 -10 -21 -10 -8 0 -12 5 -9 10 3 6 13 10 21 10 8 0
12 -4 9 -10z m-15 -104 c0 -3 -4 -8 -10 -11 -5 -3 -10 -1 -10 4 0 6 5 11 10
11 6 0 10 -2 10 -4z"/>
<path d="M7730 20869 c-52 -21 -99 -40 -104 -42 -9 -3 203 -561 230 -604 8
-12 14 -31 14 -43 0 -13 7 -20 18 -20 10 0 25 -12 32 -26 9 -17 20 -24 32 -21
10 3 18 1 18 -4 0 -5 -13 -12 -30 -15 -16 -4 -30 -9 -30 -13 0 -17 55 -142 58
-132 2 6 8 8 13 5 6 -3 5 -11 -2 -20 -9 -11 -9 -18 3 -32 8 -9 15 -28 16 -42
1 -14 6 -26 12 -28 5 -2 10 -12 10 -23 0 -10 5 -19 10 -19 6 0 10 5 10 11 0 6
7 9 15 5 9 -3 24 3 33 12 10 10 24 16 31 14 7 -2 20 3 30 12 10 9 22 16 27 14
19 -5 74 22 74 36 0 19 -12 20 -28 4 -7 -7 -12 -8 -12 -2 0 6 3 14 7 18 4 3 8
14 10 24 3 20 -27 102 -37 102 -4 0 -7 6 -6 13 0 6 -12 47 -28 90 -21 55 -32
74 -38 65 -6 -9 -8 -4 -4 15 5 21 1 33 -19 52 -13 14 -24 29 -22 33 1 4 -6 8
-15 10 -21 4 -25 -23 -5 -31 6 -3 -5 -5 -25 -4 -39 2 -54 17 -18 17 13 0 20 7
20 19 0 11 9 21 21 24 16 4 20 11 15 24 -71 196 -173 442 -183 439 -6 -3 -19
2 -30 10 -17 14 -17 15 3 5 31 -15 34 -5 16 45 -10 27 -22 44 -32 43 -8 -1
-58 -18 -110 -40z m93 -89 c4 -17 0 -20 -26 -20 l-32 1 24 19 c29 24 28 24 34
0z"/>
<path d="M15684 20879 c-13 -26 -14 -33 -2 -40 10 -7 9 -10 -7 -15 -14 -4 -39
-46 -80 -131 -33 -69 -60 -130 -60 -137 0 -6 -3 -13 -6 -16 -11 -8 -99 -189
-99 -202 0 -6 10 -2 23 10 26 25 47 30 23 6 -9 -8 -16 -21 -16 -28 0 -8 -9
-12 -22 -9 -21 3 -31 -13 -106 -172 -46 -97 -81 -179 -78 -182 3 -4 6 -1 6 5
0 7 7 12 16 12 10 0 5 -9 -15 -26 -17 -14 -31 -31 -31 -38 0 -13 106 -66 132
-66 9 0 19 -4 23 -9 3 -6 19 -16 35 -25 l30 -15 29 62 c16 34 59 124 95 201
61 127 74 168 44 138 -18 -18 -28 -15 -28 8 0 13 7 20 19 20 10 0 24 7 31 15
7 8 16 12 21 9 9 -5 11 0 13 29 1 6 6 17 12 22 17 15 224 454 224 473 -1 31
-25 50 -113 91 -47 23 -88 41 -91 41 -3 0 -13 -14 -22 -31z m46 -49 c0 -5 -7
-7 -15 -4 -8 4 -15 8 -15 10 0 2 7 4 15 4 8 0 15 -4 15 -10z m-50 -86 c0 -8
-5 -12 -10 -9 -6 4 -8 11 -5 16 9 14 15 11 15 -7z m30 -54 c0 -5 -4 -10 -10
-10 -5 0 -10 5 -10 10 0 6 5 10 10 10 6 0 10 -4 10 -10z m-30 -14 c0 -3 -4 -8
-10 -11 -5 -3 -10 -1 -10 4 0 6 5 11 10 11 6 0 10 -2 10 -4z m-44 -31 c5 -12
9 -13 20 -4 8 7 17 9 21 5 8 -8 3 -12 -24 -20 -17 -5 -23 -3 -23 7 0 9 -6 18
-12 20 -10 4 -10 6 0 6 7 1 15 -6 18 -14z m-2 -91 c3 -8 2 -12 -4 -9 -6 3 -10
10 -10 16 0 14 7 11 14 -7z m-69 -274 c3 -5 1 -10 -4 -10 -6 0 -11 5 -11 10 0
6 2 10 4 10 3 0 8 -4 11 -10z m-95 -56 c0 -8 -5 -12 -10 -9 -6 4 -8 11 -5 16
9 14 15 11 15 -7z m-46 -113 c-9 -10 -26 18 -18 30 5 9 9 8 14 -7 4 -10 6 -21
4 -23z m96 -51 c13 -8 13 -10 -2 -10 -9 0 -20 5 -23 10 -8 13 5 13 25 0z m-58
-132 c-7 -7 -12 -8 -12 -2 0 14 12 26 19 19 2 -3 -1 -11 -7 -17z m-22 2 c0 -5
-4 -10 -9 -10 -6 0 -13 5 -16 10 -3 6 1 10 9 10 9 0 16 -4 16 -10z m-61 -27
c2 -2 -3 -3 -11 -3 -9 0 -19 7 -22 16 -6 15 -4 15 11 3 10 -7 20 -15 22 -16z"/>
<path d="M8536 20775 c4 -8 10 -12 15 -9 14 8 10 24 -6 24 -9 0 -12 -6 -9 -15z"/>
<path d="M15921 20693 c-40 -82 -41 -88 -24 -100 9 -8 23 -11 29 -9 7 3 14 -1
17 -7 2 -7 22 -18 43 -26 44 -16 93 -53 111 -85 7 -11 12 -44 13 -72 0 -55
-24 -101 -70 -136 -28 -21 -128 -40 -136 -26 -8 12 -140 78 -158 78 -7 0 -19
-15 -26 -32 -7 -18 -25 -59 -42 -90 l-29 -57 71 -36 c160 -80 347 -120 379
-81 7 8 21 12 31 9 11 -3 20 -1 20 5 0 5 13 15 30 22 37 15 112 95 139 148 30
58 51 147 51 212 0 123 -88 224 -273 315 -62 30 -117 55 -123 55 -6 0 -30 -39
-53 -87z m-156 -423 c3 -5 2 -16 -2 -24 -6 -12 -10 -10 -20 10 -9 19 -8 24 2
24 8 0 17 -4 20 -10z m55 -26 c0 -8 -4 -12 -10 -9 -5 3 -10 10 -10 16 0 5 5 9
10 9 6 0 10 -7 10 -16z m70 -54 c0 -5 -4 -10 -10 -10 -5 0 -10 5 -10 10 0 6 5
10 10 10 6 0 10 -4 10 -10z"/>
<path d="M8536 20734 c-4 -9 -4 -19 -1 -22 2 -3 7 3 11 12 4 9 4 19 1 22 -2 3
-7 -3 -11 -12z"/>
<path d="M16376 20505 c4 -8 8 -15 10 -15 2 0 4 7 4 15 0 8 -4 15 -10 15 -5 0
-7 -7 -4 -15z"/>
<path d="M8742 20259 c2 -6 8 -10 13 -10 5 0 11 4 13 10 2 6 -4 11 -13 11 -9
0 -15 -5 -13 -11z"/>
<path d="M10606 19953 c-3 -26 -26 -351 -51 -723 -74 -1114 -99 -1403 -142
-1625 -23 -117 -27 -167 -27 -300 1 -218 34 -355 121 -499 45 -74 152 -183
217 -221 l48 -28 -6 -66 c-20 -222 -38 -548 -33 -621 10 -180 -27 -917 -68
-1370 -24 -260 -64 -565 -91 -690 -24 -115 -24 -115 -24 -761 l0 -646 53 -7
c78 -9 117 -7 117 5 0 7 14 120 30 253 20 156 73 459 150 861 l119 620 9 415
9 415 -32 195 c-18 107 -40 222 -49 255 -62 242 -95 787 -55 928 8 29 56 85
212 245 283 291 315 336 362 513 74 279 102 612 71 829 -21 139 -75 371 -109
460 -52 139 -138 285 -223 380 -55 62 -134 187 -199 318 -80 161 -122 262
-251 596 -130 336 -145 362 -158 269z"/>
<path d="M17685 19467 c-307 -193 -325 -206 -325 -217 0 -6 -4 -8 -10 -5 -6 3
-10 -4 -10 -17 0 -18 -2 -20 -10 -8 -8 13 -12 13 -36 -1 -15 -9 -29 -24 -30
-34 -1 -9 -6 -20 -10 -23 -4 -4 -4 1 0 12 9 25 -3 19 -109 -49 -70 -45 -85
-58 -75 -70 9 -11 7 -12 -9 -8 -12 3 -21 1 -21 -4 0 -6 -18 -31 -40 -56 l-40
-45 87 -70 c92 -76 94 -76 144 -29 15 13 33 26 40 29 19 8 435 297 533 370 43
32 80 57 82 56 2 -2 -8 -28 -22 -58 -24 -50 -101 -234 -124 -296 l-10 -25 -73
60 -74 60 -79 -56 c-43 -30 -83 -59 -87 -63 -4 -4 46 -50 112 -103 l120 -97
-14 -37 c-7 -21 -27 -71 -44 -112 -17 -41 -31 -75 -31 -77 0 -6 212 -174 219
-174 6 0 386 1083 386 1100 0 9 -211 180 -222 180 -4 -1 -102 -60 -218 -133z
m-260 -207 c-3 -5 -12 -10 -18 -10 -7 0 -6 4 3 10 19 12 23 12 15 0z m-125
-70 c0 -5 -2 -10 -4 -10 -3 0 -8 5 -11 10 -3 6 -1 10 4 10 6 0 11 -4 11 -10z
m-173 -156 c-3 -3 -12 -4 -19 -1 -8 3 -5 6 6 6 11 1 17 -2 13 -5z m-32 -104
c3 -5 2 -10 -4 -10 -5 0 -13 5 -16 10 -3 6 -2 10 4 10 5 0 13 -4 16 -10z m38
-11 c-12 -12 -5 -52 8 -43 5 3 9 1 9 -3 0 -5 -9 -14 -21 -21 -19 -12 -20 -11
-14 7 5 16 1 23 -17 30 -15 7 -18 10 -7 10 9 1 19 8 23 16 3 8 11 15 18 15 9
0 9 -3 1 -11z m107 -18 c0 -6 -4 -13 -10 -16 -5 -3 -10 1 -10 9 0 9 5 16 10
16 6 0 10 -4 10 -9z"/>
<path d="M5325 19300 c-63 -13 -138 -44 -189 -79 -54 -37 -54 -35 28 -126 l54
-59 43 19 c58 27 189 28 238 2 19 -9 40 -17 47 -17 7 0 16 -9 19 -20 3 -11 9
-20 13 -20 11 0 92 -78 92 -88 0 -14 27 -34 32 -25 3 4 3 2 1 -6 -2 -8 6 -23
17 -33 11 -11 18 -23 15 -28 -3 -5 1 -20 10 -34 9 -14 16 -46 17 -75 0 -54
-21 -151 -33 -151 -4 0 -9 -7 -13 -15 -3 -8 0 -14 7 -12 6 1 13 -9 15 -23 2
-14 15 -35 30 -48 21 -17 24 -24 13 -31 -17 -11 0 -45 31 -62 18 -10 25 -7 55
27 44 52 98 165 113 239 23 110 -8 270 -69 368 -31 47 -55 59 -79 35 -9 -9
-12 -9 -12 0 0 7 5 12 10 12 7 0 7 6 0 20 -8 15 -8 20 2 20 7 0 4 9 -9 21 -17
18 -24 19 -43 9 -20 -11 -21 -10 -9 11 10 20 8 26 -16 47 l-28 24 -18 -23
c-10 -13 -15 -28 -12 -33 3 -5 1 -6 -5 -2 -5 3 -12 0 -15 -6 -2 -7 -8 -10 -12
-6 -4 4 2 15 13 25 37 31 19 69 -47 102 -93 47 -202 62 -306 41z m353 -194
l27 7 -23 -25 c-12 -13 -20 -26 -18 -29 2 -2 -5 -4 -17 -5 -12 0 -31 -4 -42
-8 -14 -5 -14 -3 3 5 24 13 28 24 11 34 -6 5 -4 12 8 20 10 8 19 9 21 4 2 -5
16 -6 30 -3z m89 -12 c-3 -3 -12 -4 -19 -1 -8 3 -5 6 6 6 11 1 17 -2 13 -5z
m-42 -69 c-10 -5 -29 -19 -44 -31 -17 -13 -34 -19 -49 -15 -21 6 -21 7 12 33
23 19 36 24 39 15 2 -7 13 -2 28 15 20 23 25 24 28 10 2 -9 -5 -21 -14 -27z
m-15 -89 c0 -2 -7 -7 -16 -10 -8 -3 -12 -2 -9 4 6 10 25 14 25 6z m80 -86 c0
-5 -5 -10 -11 -10 -5 0 -7 5 -4 10 3 6 8 10 11 10 2 0 4 -4 4 -10z"/>
<path d="M5000 19098 c-51 -64 -73 -106 -95 -183 -49 -169 4 -360 142 -515 34
-38 43 -43 56 -32 11 10 17 10 22 1 4 -6 2 -14 -4 -18 -8 -5 -6 -13 7 -24 17
-16 20 -16 39 6 11 12 26 33 33 46 9 18 15 20 23 11 9 -9 7 -16 -10 -30 -13
-10 -23 -25 -23 -34 0 -9 -4 -16 -10 -16 -5 0 -10 -4 -10 -9 0 -17 147 -84
170 -78 11 3 18 1 14 -4 -3 -5 -4 -9 -2 -9 138 -17 268 -5 268 26 0 8 4 13 9
9 5 -3 12 -1 16 5 4 6 11 8 16 4 12 -7 69 15 69 26 0 19 -40 41 -62 35 l-23
-7 23 17 c13 9 21 23 18 31 -9 24 2 16 19 -13 l16 -28 -6 27 c-3 15 0 30 5 33
17 10 -1 27 -22 22 -15 -4 -18 -2 -14 10 4 9 1 22 -5 29 -18 22 -61 -11 -53
-42 5 -18 2 -24 -10 -24 -13 0 -15 6 -10 28 4 15 11 29 16 30 9 4 11 32 3 32
-4 0 -18 -6 -33 -14 -81 -41 -184 -19 -287 61 -32 25 -65 46 -72 46 -7 0 -13
9 -13 19 0 10 -8 26 -18 36 -24 24 -70 129 -78 179 -3 24 -10 40 -15 37 -4 -2
-2 8 6 23 8 15 15 36 15 46 0 10 11 37 24 60 21 36 23 46 13 68 -15 33 -101
129 -116 129 -6 0 -29 -23 -51 -52z m220 -573 c0 -8 -4 -15 -10 -15 -5 0 -10
-7 -10 -15 0 -8 -9 -15 -20 -15 -12 0 -24 -10 -30 -22 -9 -23 -9 -23 -9 -1 -1
12 -6 23 -12 25 -18 6 2 38 25 38 11 0 28 5 36 10 21 14 30 12 30 -5z m107
-109 c-2 -6 -12 -10 -21 -10 -9 1 -16 -3 -16 -8 0 -5 -7 -16 -15 -24 -19 -20
-19 -10 1 31 11 25 20 32 35 28 11 -3 18 -11 16 -17z m-40 -80 c0 -8 -6 -12
-14 -9 -7 3 -13 9 -13 14 0 5 6 9 13 9 8 0 14 -6 14 -14z m-43 -17 c-8 -13
-21 -11 -27 5 -4 10 0 12 14 9 10 -3 16 -9 13 -14z m293 15 c-3 -3 -12 -4 -19
-1 -8 3 -5 6 6 6 11 1 17 -2 13 -5z m-287 -44 c0 -5 -10 -10 -22 -10 -19 0
-20 2 -8 10 19 13 30 13 30 0z m275 -20 c-3 -5 -11 -10 -16 -10 -6 0 -7 5 -4
10 3 6 11 10 16 10 6 0 7 -4 4 -10z"/>
<path d="M19515 18428 c-11 -6 -36 -26 -56 -43 l-36 -32 45 -54 c24 -30 50
-57 56 -61 7 -4 34 13 64 40 l51 47 -52 57 c-46 51 -54 56 -72 46z"/>
<path d="M5744 18345 c0 -37 23 -56 33 -28 4 9 1 19 -5 21 -7 2 -12 10 -12 17
0 8 -4 16 -8 19 -4 2 -8 -11 -8 -29z"/>
<path d="M19617 18235 l-58 -47 52 -59 c28 -32 56 -59 61 -59 6 0 28 18 50 40
22 22 45 40 50 40 9 0 -3 17 -74 103 l-24 29 -57 -47z m18 -75 c-3 -5 -12 -10
-18 -10 -7 0 -6 4 3 10 19 12 23 12 15 0z"/>
<path d="M8974 18245 c-18 -47 27 -152 223 -523 179 -336 255 -499 311 -662
84 -246 110 -412 118 -765 9 -372 26 -432 222 -801 81 -152 126 -323 157 -593
17 -160 26 -187 54 -172 45 25 145 275 202 506 56 229 64 311 64 650 0 343 -8
404 -76 607 -43 127 -71 181 -222 418 -128 203 -284 468 -366 627 -48 92 -139
205 -339 419 -163 175 -305 304 -335 304 -4 0 -10 -7 -13 -15z"/>
<path d="M19130 18022 c-280 -236 -306 -260 -302 -280 3 -13 1 -14 -11 -4 -11
10 -17 9 -27 -3 -10 -12 -10 -15 2 -15 10 0 15 -11 15 -32 l0 -31 -23 28 -23
29 -55 -48 c-50 -43 -72 -67 -46 -51 5 3 7 0 4 -8 -3 -9 -13 -13 -25 -10 -15
4 -22 0 -26 -16 -3 -11 -12 -21 -21 -21 -16 0 -62 -45 -62 -61 0 -6 5 -7 10
-4 6 3 10 -1 10 -9 0 -9 9 -21 20 -28 11 -7 20 -18 20 -25 0 -7 9 -17 20 -23
11 -6 20 -16 20 -23 0 -8 13 -26 28 -41 26 -24 30 -25 42 -11 10 12 10 15 -4
15 -9 0 -16 4 -16 10 0 5 13 7 29 5 23 -3 39 5 72 36 23 21 44 39 47 39 14 0
121 104 115 113 -3 5 -1 7 4 4 15 -10 63 31 63 54 0 11 7 19 16 19 9 0 12 -5
8 -12 -5 -7 7 0 26 16 351 295 380 321 375 335 -2 9 0 23 6 31 8 12 9 10 4 -7
-9 -34 15 -29 53 10 l31 32 -75 90 c-42 50 -79 91 -83 93 -4 1 -112 -87 -241
-196z m268 15 c11 -8 11 -12 0 -18 -20 -13 -25 -11 -30 16 -5 24 0 25 30 2z
m-510 -285 c6 -18 -15 -14 -22 4 -4 10 -1 14 6 12 6 -2 14 -10 16 -16z m264
-14 c-7 -7 -12 -8 -12 -2 0 14 12 26 19 19 2 -3 -1 -11 -7 -17z m-244 -40
c-12 -21 -17 -23 -41 -15 -34 11 -36 31 -2 25 14 -3 30 1 36 9 18 20 21 9 7
-19z m132 12 c8 -5 11 -10 5 -10 -5 0 -17 5 -25 10 -8 5 -10 10 -5 10 6 0 17
-5 25 -10z m-90 -17 c0 -5 -5 -15 -10 -23 -8 -12 -10 -11 -10 8 0 12 5 22 10
22 6 0 10 -3 10 -7z m77 -17 c13 4 22 0 27 -12 9 -23 0 -30 -19 -14 -11 9 -18
10 -29 1 -11 -9 -15 -5 -18 20 -4 26 -3 29 7 16 7 -10 20 -14 32 -11z m-273
-12 c23 -9 20 -23 -4 -17 -11 3 -20 9 -20 14 0 11 3 11 24 3z m71 -54 c3 -5
-1 -10 -10 -10 -9 0 -13 5 -10 10 3 6 8 10 10 10 2 0 7 -4 10 -10z m20 -90 c3
-6 -1 -7 -9 -4 -18 7 -21 14 -7 14 6 0 13 -4 16 -10z"/>
<path d="M3816 17848 c-36 -50 -66 -96 -66 -102 1 -11 457 -347 509 -375 14
-8 31 -21 37 -29 6 -9 18 -13 27 -9 9 3 19 2 22 -3 3 -4 -1 -10 -7 -12 -8 -3
-5 -9 8 -16 18 -10 21 -9 20 6 -1 11 5 16 18 14 10 -2 22 2 27 9 4 8 10 11 14
8 3 -3 -4 -17 -15 -32 -11 -14 -20 -28 -20 -31 0 -6 106 -86 115 -86 3 0 3 5
0 10 -3 6 -4 10 0 10 3 0 10 -11 15 -25 5 -14 18 -25 27 -25 10 0 24 -9 31
-20 7 -11 18 -20 26 -20 8 0 17 -7 20 -16 3 -8 10 -12 16 -9 6 4 8 10 5 15 -3
4 6 15 20 24 15 10 22 22 19 31 -4 9 0 15 9 15 9 0 18 9 22 19 3 11 19 34 36
52 30 32 33 49 11 57 -7 2 -12 -3 -12 -12 0 -9 -5 -16 -11 -16 -6 0 -9 7 -6
15 4 8 2 17 -4 20 -5 4 -7 10 -4 14 5 9 -67 61 -85 61 -5 0 -10 4 -10 9 0 17
-138 111 -144 98 -2 -7 -5 -4 -5 5 -1 20 -42 50 -62 46 -7 -2 -13 3 -14 11 0
7 -94 82 -210 166 -152 112 -213 151 -222 144 -7 -6 -20 -9 -30 -6 -14 4 -13
5 5 6 12 0 22 5 22 10 0 12 -63 61 -77 61 -6 0 -41 -41 -77 -92z m114 -55
c-27 -19 -35 -11 -20 17 9 17 14 19 26 9 12 -10 11 -14 -6 -26z m335 -151 c-3
-3 -11 0 -18 7 -9 10 -8 11 6 5 10 -3 15 -9 12 -12z m121 -84 c-20 -11 -21
-26 -1 -30 10 -2 4 -9 -17 -21 -23 -13 -28 -14 -19 -3 7 9 10 24 6 37 -8 24 9
41 33 32 12 -5 12 -7 -2 -15z m-106 -18 c-19 -13 -30 -13 -30 0 0 6 10 10 23
10 18 0 19 -2 7 -10z m103 -116 c-2 -6 0 -15 6 -19 8 -4 6 -11 -4 -21 -18 -18
-39 -9 -31 13 4 9 -1 21 -10 28 -14 10 -12 12 14 12 20 0 28 -5 25 -13z m-103
-14 c0 -5 -4 -10 -10 -10 -5 0 -10 5 -10 10 0 6 5 10 10 10 6 0 10 -4 10 -10z
m273 -15 c-3 -9 -8 -14 -10 -11 -3 3 -2 9 2 15 9 16 15 13 8 -4z m-73 -46 c0
-5 -4 -9 -10 -9 -5 0 -10 7 -10 16 0 8 5 12 10 9 6 -3 10 -10 10 -16z m-37
-69 c-3 -11 -7 -20 -9 -20 -2 0 -4 9 -4 20 0 11 4 20 9 20 5 0 7 -9 4 -20z"/>
<path d="M4063 17443 c4 -6 0 -14 -9 -17 -10 -4 -13 -2 -8 6 4 6 3 8 -4 4 -6
-3 -32 -37 -57 -74 -88 -127 -117 -167 -132 -184 -15 -17 -14 -18 6 -18 32 0
15 -20 -17 -21 -24 0 -25 -1 -7 -9 11 -5 29 -11 40 -15 14 -4 16 -8 7 -14 -9
-5 4 -19 42 -46 55 -38 76 -39 76 -4 0 10 6 19 14 19 7 0 26 19 42 43 16 23
54 76 85 117 77 102 79 111 30 143 -24 16 -47 24 -58 21 -13 -4 -14 -3 -5 3
10 7 9 13 -5 25 -26 22 -47 33 -40 21z m19 -85 c-6 -6 -19 -7 -29 -4 -16 7
-16 9 7 21 26 14 41 2 22 -17z m-72 -18 c0 -5 -4 -10 -10 -10 -5 0 -10 5 -10
10 0 6 5 10 10 10 6 0 10 -4 10 -10z m65 -90 c3 -5 1 -10 -4 -10 -6 0 -11 5
-11 10 0 6 2 10 4 10 3 0 8 -4 11 -10z m-159 -107 c-10 -10 -19 5 -10 18 6 11
8 11 12 0 2 -7 1 -15 -2 -18z m77 -8 c-3 -9 -8 -14 -10 -11 -3 3 -2 9 2 15 9
16 15 13 8 -4z m-8 -103 c-8 -9 -35 20 -28 31 4 6 11 3 19 -8 8 -10 12 -21 9
-23z"/>
<path d="M3407 17285 c-21 -30 -33 -55 -27 -55 7 0 9 -8 5 -20 -5 -15 -2 -20
13 -20 11 0 23 -7 26 -16 3 -8 10 -12 16 -9 5 3 10 -1 10 -10 0 -11 -5 -15
-15 -11 -16 6 -16 5 -20 -32 -2 -18 2 -23 15 -19 9 2 25 -2 35 -9 10 -8 13
-14 7 -14 -7 0 -12 -9 -12 -21 0 -16 4 -19 23 -14 17 6 20 5 10 -5 -9 -10 -7
-17 12 -31 13 -11 26 -19 29 -19 14 0 5 50 -10 58 -11 6 -13 12 -6 16 6 4 9
12 6 19 -3 8 9 12 36 12 22 1 40 -2 40 -6 0 -11 -29 -19 -45 -13 -21 8 -18
-16 5 -46 l20 -25 0 24 c0 16 4 21 14 18 8 -3 20 0 26 8 20 25 64 4 55 -26 -5
-14 -1 -19 12 -20 13 -1 11 -3 -7 -9 l-25 -7 30 -13 c17 -7 33 -13 38 -12 4 1
7 -2 7 -8 0 -5 7 -10 15 -10 8 0 15 -9 15 -20 0 -11 -4 -20 -10 -20 -5 0 -10
6 -10 14 0 21 -19 30 -35 16 -20 -16 -51 -5 -37 13 8 9 6 16 -9 25 -10 7 -19
23 -19 37 0 28 -12 32 -29 11 -9 -11 -9 -15 1 -19 7 -3 3 -6 -10 -6 -20 -1
-21 -4 -12 -21 6 -11 15 -18 19 -15 5 3 11 -2 14 -9 3 -8 1 -16 -5 -18 -6 -2
16 -24 50 -48 33 -25 125 -92 203 -150 78 -57 153 -110 167 -117 14 -8 36 -25
50 -38 32 -32 81 -57 96 -48 6 4 18 8 26 8 26 0 17 30 -9 30 -32 0 -39 23 -10
33 16 6 19 11 10 17 -7 4 -16 3 -20 -2 -3 -5 -16 -10 -29 -10 -19 -2 -22 3
-20 28 1 17 6 33 10 35 5 3 5 10 2 16 -4 7 -2 8 4 4 7 -4 12 -16 12 -27 0 -14
6 -19 18 -17 22 4 30 91 10 115 -10 13 -9 15 7 11 16 -3 20 -11 19 -46 -1 -33
2 -42 13 -38 11 5 14 -3 12 -34 -2 -21 0 -42 3 -46 9 -8 53 23 53 39 0 6 7 12
15 12 18 0 26 43 10 59 -8 8 -14 7 -21 -4 -9 -13 -10 -12 -5 2 5 18 -25 43
-38 31 -3 -3 -6 0 -6 9 0 8 -57 56 -127 107 -71 50 -150 108 -178 129 -31 23
-47 31 -42 20 3 -10 2 -20 -3 -23 -6 -4 -10 -11 -10 -16 0 -6 5 -7 10 -4 6 3
10 2 10 -3 0 -15 -13 -22 -24 -12 -7 5 -28 5 -55 -1 -25 -6 -48 -6 -53 -1 -5
5 1 8 14 8 17 -1 23 4 21 19 -1 19 -1 19 11 3 17 -23 21 -23 40 7 23 35 10 53
-103 137 -66 50 -99 68 -114 64 -14 -3 -17 -2 -9 6 14 14 -67 78 -100 79 -13
0 -17 3 -10 6 13 5 -54 63 -73 62 -5 0 -27 -24 -48 -54z m83 15 c0 -5 -4 -10
-9 -10 -6 0 -13 5 -16 10 -3 6 1 10 9 10 9 0 16 -4 16 -10z m-8 -86 c-6 -11
-11 -13 -16 -5 -4 6 -2 11 4 11 6 0 8 5 5 10 -3 6 -3 16 2 23 11 18 17 -18 5
-39z m73 -3 c-3 -6 -11 -8 -17 -5 -6 4 -5 9 3 15 16 10 23 4 14 -10z m43 -58
c-12 -12 -23 -21 -25 -19 -8 8 20 43 34 43 9 0 6 -8 -9 -24z m47 -33 c-3 -5
-12 -10 -18 -10 -7 0 -6 4 3 10 19 12 23 12 15 0z m109 -93 c-3 -27 0 -43 8
-49 9 -5 7 -8 -7 -8 -17 0 -20 7 -20 48 0 32 4 49 12 49 9 0 11 -13 7 -40z
m-52 11 c-7 -7 -12 -8 -12 -2 0 14 12 26 19 19 2 -3 -1 -11 -7 -17z m98 -8 c0
-5 -5 -10 -11 -10 -5 0 -7 5 -4 10 3 6 8 10 11 10 2 0 4 -4 4 -10z m95 -120
c12 0 25 -7 29 -15 4 -13 2 -13 -14 -5 -12 6 -21 7 -25 0 -3 -5 -12 -7 -20 -4
-20 8 -28 -17 -16 -48 7 -20 6 -31 -5 -44 -15 -18 -15 -18 -6 0 8 16 4 25 -19
47 -28 26 -38 49 -20 49 5 0 12 -10 15 -22 l7 -23 10 24 c5 14 7 31 4 38 -2 8
-1 11 4 8 5 -3 13 0 17 7 6 9 9 9 12 0 2 -7 14 -12 27 -12z m129 -16 c4 -10 1
-14 -6 -12 -15 5 -23 28 -10 28 5 0 13 -7 16 -16z m-125 -76 c1 -4 -5 -5 -13
-2 -12 5 -14 18 -6 44 2 6 18 -31 19 -42z m171 11 c0 -17 -3 -19 -13 -10 -8 6
-18 7 -23 3 -4 -4 -2 1 5 11 18 23 31 22 31 -4z m105 -38 c3 -5 1 -12 -4 -15
-5 -3 -11 1 -15 9 -6 16 9 21 19 6z m-235 -25 c0 -3 -4 -8 -10 -11 -5 -3 -10
-1 -10 4 0 6 5 11 10 11 6 0 10 -2 10 -4z m60 -82 c0 -8 -5 -12 -10 -9 -6 4
-8 11 -5 16 9 14 15 11 15 -7z"/>
<path d="M12812 17262 c-31 -101 -79 -204 -126 -269 -32 -45 -62 -67 -195
-147 -173 -105 -225 -142 -356 -261 -229 -207 -274 -280 -425 -694 -108 -296
-158 -493 -179 -702 -26 -251 -39 -600 -23 -599 4 1 23 26 42 58 21 33 153
176 320 347 157 159 325 335 374 390 168 189 304 378 399 555 164 305 251 725
227 1101 -7 113 -28 299 -34 299 0 0 -12 -35 -24 -78z"/>
<path d="M3331 17179 l-24 -31 29 -24 c16 -13 37 -29 47 -35 16 -9 18 -7 15
13 -2 14 -9 22 -19 20 -13 -2 -15 6 -12 43 5 52 -3 55 -36 14z"/>
<path d="M14949 17078 c-16 -35 -72 -196 -125 -358 -53 -162 -127 -371 -164
-465 -79 -198 -104 -276 -130 -401 -10 -50 -32 -136 -48 -190 -45 -151 -55
-235 -49 -397 4 -113 10 -160 31 -231 33 -110 80 -212 140 -305 l46 -71 -141
-683 c-78 -375 -142 -684 -144 -686 -2 -2 -10 12 -18 30 -8 19 -77 178 -154
354 -188 431 -179 404 -164 469 7 30 32 92 56 140 62 120 79 184 72 271 -8 92
-37 173 -89 249 -56 82 -99 184 -202 481 -157 455 -181 519 -198 539 -14 17
-19 18 -27 7 -50 -76 -74 -675 -38 -936 29 -206 65 -414 86 -494 15 -58 28
-82 59 -115 49 -49 61 -90 97 -309 29 -173 25 -162 220 -762 126 -390 137
-430 155 -565 26 -202 42 -398 34 -411 -7 -12 179 -9 191 3 4 3 -1 41 -10 83
-16 72 -16 91 5 413 l21 337 174 680 c96 374 181 717 189 762 16 92 50 175 96
232 16 21 77 71 135 111 131 91 213 177 259 273 40 83 72 207 81 317 4 41 13
131 21 200 18 160 18 261 -1 405 -35 265 -157 631 -307 917 -51 97 -101 168
-119 168 -5 0 -23 -28 -40 -62z"/>
<path d="M3555 16960 c3 -5 11 -10 16 -10 6 0 7 5 4 10 -3 6 -11 10 -16 10 -6
0 -7 -4 -4 -10z"/>
<path d="M20285 16908 c-51 -26 -51 -26 -36 -41 10 -9 15 -8 25 6 13 17 46 15
46 -3 0 -11 30 -21 41 -15 8 6 -20 75 -30 75 -3 -1 -24 -10 -46 -22z"/>
<path d="M20230 16842 c0 -9 -9 -23 -20 -30 -11 -7 -20 -9 -19 -5 3 21 -2 33
-16 33 -8 0 -15 -9 -15 -21 0 -11 -5 -17 -10 -14 -6 4 -8 11 -5 16 4 5 1 9 -4
9 -6 0 -11 -4 -11 -8 0 -5 -12 -13 -27 -18 l-28 -11 27 -13 c18 -9 32 -10 40
-3 9 7 18 4 30 -8 14 -15 14 -18 2 -23 -8 -3 -14 -17 -14 -31 0 -15 -4 -24 -9
-21 -10 7 -9 31 2 42 21 21 -4 27 -62 15 -3 -1 4 -8 15 -16 10 -8 14 -15 7
-15 -8 0 -10 -11 -6 -34 4 -28 2 -34 -18 -39 -14 -4 -27 -1 -31 6 -6 9 -11 8
-19 -3 -8 -12 -9 -10 -4 8 8 29 -8 28 -31 -3 -10 -14 -24 -25 -31 -25 -7 0
-13 -4 -13 -9 0 -5 -9 -7 -20 -4 -22 6 -28 25 -7 22 28 -3 37 2 37 25 0 28 19
45 29 27 6 -8 15 -9 34 -2 17 7 28 7 32 1 11 -17 25 -11 25 11 0 15 -5 19 -15
15 -13 -4 -14 -2 -5 14 9 18 8 20 -15 20 -14 0 -25 -4 -25 -10 0 -5 -7 -10
-16 -10 -8 0 -12 5 -9 10 3 6 4 10 0 10 -14 0 -107 -52 -125 -70 -11 -11 -24
-19 -28 -17 -11 3 -298 -153 -322 -175 -11 -10 -25 -18 -33 -18 -7 0 -32 -12
-55 -27 -30 -20 -42 -33 -38 -45 2 -10 0 -21 -5 -24 -13 -8 -1 -24 18 -24 9 0
13 6 9 15 -7 20 23 33 34 14 5 -7 6 -17 4 -21 -3 -4 0 -8 6 -8 6 0 10 6 9 13
-3 20 12 47 27 47 8 0 14 -4 14 -10 0 -5 7 -10 16 -10 8 0 13 -4 10 -9 -4 -5
0 -12 6 -15 7 -3 1 -4 -13 -1 -19 3 -29 0 -33 -12 -8 -19 -11 -16 39 -40 22
-11 49 -17 60 -15 17 4 18 2 6 -12 -13 -15 -16 -15 -47 3 -30 18 -34 19 -43 4
-8 -14 -12 -14 -39 5 -16 12 -33 22 -36 22 -11 0 1 -62 13 -69 6 -4 9 -15 6
-24 -4 -10 1 -19 14 -27 20 -10 33 -6 91 30 8 5 99 55 202 110 180 98 186 102
170 121 -9 11 -18 15 -20 9 -4 -12 -22 -3 -22 11 0 5 6 9 14 9 9 0 16 17 21
50 5 40 11 50 25 50 11 0 23 6 27 13 6 10 17 9 50 -8 27 -14 39 -26 34 -33 -5
-9 -14 -6 -30 9 -17 16 -30 20 -55 15 -29 -6 -34 -11 -40 -44 -3 -21 -1 -38 4
-40 6 -2 10 -10 10 -18 0 -26 61 -9 160 45 52 29 100 59 106 67 6 7 13 11 16
8 8 -7 79 35 101 60 10 12 16 15 12 9 -3 -7 -4 -13 -2 -13 8 0 97 52 97 56 0
2 -14 29 -31 60 -20 34 -37 53 -45 50 -7 -3 -15 0 -17 7 -3 9 -10 7 -23 -4
-10 -9 -28 -19 -40 -23 -16 -5 -20 -2 -20 15 1 13 -7 25 -21 30 -18 7 -23 5
-23 -9z m25 -42 c3 -5 1 -10 -4 -10 -6 0 -11 5 -11 10 0 6 2 10 4 10 3 0 8 -4
11 -10z m85 -55 c4 3 10 -2 14 -10 3 -8 2 -15 -2 -15 -12 0 -32 23 -31 35 0 5
3 4 6 -3 2 -6 8 -10 13 -7z m70 -35 c0 -5 -4 -10 -10 -10 -5 0 -10 5 -10 10 0
6 5 10 10 10 6 0 10 -4 10 -10z m-178 -64 c-6 -10 -20 20 -21 44 0 8 6 4 13
-10 8 -14 12 -29 8 -34z m78 20 c0 -5 -7 -3 -15 4 -8 7 -12 17 -9 22 7 10 24
-9 24 -26z m-226 -52 c3 -8 2 -12 -4 -9 -6 3 -10 10 -10 16 0 14 7 11 14 -7z
m-245 -18 c24 12 36 13 44 5 8 -8 3 -11 -18 -11 l-30 0 29 -19 c17 -11 35 -17
40 -14 6 4 5 0 -1 -9 -7 -8 -10 -18 -6 -21 3 -4 -1 -7 -9 -7 -9 0 -18 -9 -21
-20 -3 -11 -13 -20 -23 -20 -17 0 -17 1 1 13 10 8 15 19 11 25 -3 6 -2 13 3
17 18 10 1 33 -25 33 -26 0 -54 18 -54 35 0 6 6 3 13 -6 12 -17 14 -17 46 -1z
m-69 -10 c0 -3 -4 -8 -10 -11 -5 -3 -10 -1 -10 4 0 6 5 11 10 11 6 0 10 -2 10
-4z m-40 -57 c0 -6 -4 -7 -10 -4 -5 3 -10 11 -10 16 0 6 5 7 10 4 6 -3 10 -11
10 -16z m100 11 c0 -5 -12 -10 -26 -10 -14 0 -23 4 -19 10 3 6 15 10 26 10 10
0 19 -4 19 -10z m-190 -44 c14 -18 14 -18 -7 -6 -12 8 -19 18 -16 23 3 4 6 7
7 5 1 -2 8 -12 16 -22z m135 -46 c3 -5 1 -10 -4 -10 -6 0 -11 5 -11 10 0 6 2
10 4 10 3 0 8 -4 11 -10z m-315 -30 c0 -5 -5 -10 -11 -10 -5 0 -7 5 -4 10 3 6
8 10 11 10 2 0 4 -4 4 -10z m283 -52 c-2 -4 -13 -2 -24 5 -16 10 -17 13 -4 15
8 2 15 9 16 15 0 7 4 3 8 -8 5 -11 7 -23 4 -27z m87 34 c0 -14 -11 -21 -26
-15 -8 3 -11 9 -8 14 7 11 34 12 34 1z m-170 -98 c0 -2 -7 -4 -15 -4 -8 0 -15
4 -15 10 0 5 7 7 15 4 8 -4 15 -8 15 -10z"/>
<path d="M20044 16775 c-10 -8 -14 -15 -8 -15 6 0 17 7 24 15 16 19 9 19 -16
0z"/>
<path d="M7244 16483 c-4 -14 -1 -105 7 -202 8 -97 14 -302 14 -456 -1 -323
-11 -427 -80 -766 -63 -314 -68 -373 -61 -744 8 -357 17 -462 52 -583 28 -96
60 -163 116 -244 32 -45 42 -70 48 -120 15 -126 -20 -346 -74 -464 -35 -75
-66 -104 -113 -104 -68 0 -190 69 -291 164 -77 72 -84 88 -66 161 23 98 18
231 -11 322 -66 208 -283 490 -672 874 -216 213 -331 309 -486 406 -129 79
-387 202 -552 262 -77 29 -159 58 -182 67 -57 21 -118 67 -151 114 -66 95 -60
-7 7 -145 193 -389 805 -1170 1331 -1695 306 -306 510 -462 683 -519 123 -41
188 -81 237 -142 47 -60 66 -119 78 -253 8 -85 13 -103 32 -118 29 -24 56 -23
110 5 65 32 81 72 91 221 7 120 37 320 66 446 8 36 28 127 43 204 26 124 38
156 110 308 204 428 309 779 361 1213 20 161 17 568 -5 725 -36 266 -63 343
-191 555 -159 262 -378 535 -430 535 -8 0 -18 -12 -21 -27z"/>
<path d="M20079 16446 c-13 -15 -25 -22 -29 -16 -7 12 -107 -38 -114 -57 -3
-7 2 -20 11 -29 9 -9 17 -25 18 -35 1 -10 13 -35 26 -56 14 -21 41 -68 60
-106 18 -37 43 -79 55 -94 l21 -26 76 42 c58 32 75 46 70 58 -4 11 -3 14 5 9
18 -11 15 -4 -22 60 -19 33 -46 83 -61 112 -15 30 -31 49 -37 46 -7 -4 -8 -2
-4 4 5 9 -9 42 -32 72 -1 2 -7 -2 -12 -10 -14 -23 -23 -4 -10 20 17 32 5 36
-21 6z m15 -61 c3 -9 0 -15 -9 -15 -9 0 -12 6 -9 15 4 8 7 15 9 15 2 0 5 -7 9
-15z m-109 -15 c-3 -5 -15 -8 -26 -7 -19 1 -19 2 -3 14 18 13 38 8 29 -7z m65
-46 c0 -8 -19 -13 -24 -6 -3 5 1 9 9 9 8 0 15 -2 15 -3z m167 -106 c-3 -8 -6
-5 -6 6 -1 11 2 17 5 13 3 -3 4 -12 1 -19z m-107 -18 c0 -5 -5 -10 -11 -10 -5
0 -7 5 -4 10 3 6 8 10 11 10 2 0 4 -4 4 -10z m108 -65 c-2 -9 -8 -12 -17 -6
-11 7 -11 13 0 32 11 20 14 21 17 7 2 -10 2 -25 0 -33z"/>
<path d="M20425 16140 c-137 -76 -266 -149 -285 -162 -19 -13 -44 -26 -55 -29
-13 -3 -19 -12 -17 -24 3 -15 1 -17 -10 -8 -8 8 -19 8 -28 3 -12 -7 -12 -10 3
-16 14 -5 15 -9 6 -20 -6 -8 -8 -21 -5 -30 4 -10 1 -14 -6 -12 -7 3 -15 13
-16 24 -2 10 -7 23 -12 27 -8 9 -172 -78 -178 -94 -2 -5 -12 -9 -21 -9 -10 0
-28 -9 -41 -20 -13 -11 -26 -20 -30 -20 -4 0 0 -16 8 -35 9 -19 22 -35 30 -35
9 0 11 -7 7 -20 -4 -13 -1 -22 8 -26 8 -3 17 -18 20 -33 9 -42 39 -73 57 -60
11 8 12 12 3 16 -26 10 -12 22 13 12 20 -7 32 -6 48 4 21 14 80 47 184 102 38
21 49 31 40 38 -9 6 -7 7 6 3 23 -8 66 19 66 40 0 13 3 14 14 5 11 -9 17 -8
30 4 8 9 18 14 20 13 12 -7 426 228 422 239 -3 6 2 19 10 30 14 17 14 16 4 -4
-8 -16 -8 -23 0 -23 19 0 91 41 88 49 -15 40 -115 211 -123 210 -5 -1 -122
-63 -260 -139z m256 -36 c10 -13 10 -17 -2 -24 -13 -9 -26 6 -28 33 -2 12 16
8 30 -9z m-511 -159 c0 -8 -4 -15 -10 -15 -5 0 -10 7 -10 15 0 8 5 15 10 15 6
0 10 -7 10 -15z m130 -42 c0 -5 -5 -15 -10 -23 -8 -12 -10 -11 -10 8 0 12 5
22 10 22 6 0 10 -3 10 -7z m-176 -35 c5 -10 7 -10 12 0 3 6 13 12 22 12 14 0
14 -1 0 -12 -9 -7 -17 -18 -19 -24 -6 -17 -49 2 -49 21 0 18 26 20 34 3z
m-134 -30 c0 -5 -7 -3 -15 6 -8 8 -15 18 -15 22 0 3 7 1 15 -6 8 -7 15 -17 15
-22z m405 22 c-3 -5 -12 -10 -18 -10 -7 0 -6 4 3 10 19 12 23 12 15 0z m-145
-50 c23 0 26 -22 6 -39 -12 -10 -13 -8 -9 8 6 23 -6 28 -25 9 -9 -9 -12 -4
-12 23 1 28 2 31 11 17 5 -10 19 -18 29 -18z m-378 -2 c-7 -7 -12 -8 -12 -2 0
14 12 26 19 19 2 -3 -1 -11 -7 -17z m168 -19 c0 -5 -7 -9 -15 -9 -9 0 -12 6
-9 15 6 15 24 11 24 -6z m5 -97 c-3 -3 -11 0 -18 7 -9 10 -8 11 6 5 10 -3 15
-9 12 -12z"/>
<path d="M2723 16107 c-5 -7 -19 -37 -32 -67 -13 -30 -35 -76 -48 -102 -13
-27 -22 -52 -19 -57 4 -5 2 -11 -3 -13 -4 -1 -21 -27 -35 -56 -22 -43 -25 -57
-15 -68 9 -12 9 -13 -3 -9 -14 5 -48 -50 -48 -78 0 -12 146 -87 170 -87 6 0
23 26 37 58 14 31 45 99 69 150 24 52 44 95 44 98 0 2 16 38 36 80 19 42 34
78 32 79 -2 2 -43 22 -90 44 -63 29 -89 36 -95 28z m-38 -477 c3 -6 -1 -7 -9
-4 -18 7 -21 14 -7 14 6 0 13 -4 16 -10z"/>
<path d="M3101 15893 c3 -19 -2 -27 -10 -15 -5 9 -19 -12 -42 -65 -19 -43 -34
-80 -35 -83 -1 -6 -72 -159 -85 -182 -13 -26 -11 -38 6 -32 9 4 15 0 15 -10 0
-10 -9 -16 -25 -16 -14 0 -25 -4 -25 -10 0 -5 13 -10 30 -10 19 0 28 -4 25
-12 -3 -8 19 -24 55 -40 33 -15 60 -23 60 -18 0 5 -7 13 -15 17 -9 6 -11 13
-5 23 7 11 11 8 21 -13 14 -32 32 -17 23 20 -4 14 -1 22 10 25 15 3 70 111
131 258 43 104 46 96 -41 135 -78 36 -95 41 -93 28z m39 -72 c0 -11 -9 -23
-21 -26 -31 -10 -35 2 -8 24 30 25 29 25 29 2z m-80 -60 c0 -6 -4 -13 -10 -16
-5 -3 -10 1 -10 9 0 9 5 16 10 16 6 0 10 -4 10 -9z m127 -47 c-3 -3 -12 -4
-19 -1 -8 3 -5 6 6 6 11 1 17 -2 13 -5z m-192 -195 c-10 -15 -25 -10 -19 6 4
8 10 12 15 9 5 -3 7 -10 4 -15z m85 12 c0 -6 -4 -13 -10 -16 -5 -3 -10 1 -10
9 0 9 5 16 10 16 6 0 10 -4 10 -9z"/>
<path d="M16138 15783 c-90 -94 -259 -403 -338 -618 -87 -235 -150 -493 -189
-780 -12 -82 -23 -166 -26 -185 -3 -19 -10 -152 -15 -295 -7 -193 -15 -282
-29 -345 -69 -304 -239 -574 -544 -866 -180 -173 -97 -118 149 98 71 62 161
135 199 162 380 266 588 592 665 1041 25 151 47 371 65 680 32 541 53 744 101
963 39 185 31 217 -38 145z"/>
<path d="M3538 15733 c0 -10 -1 -25 0 -33 0 -8 -6 -19 -15 -24 -23 -12 -47
-77 -33 -86 7 -5 3 -9 -11 -13 -13 -4 -20 -9 -16 -13 4 -4 1 -14 -6 -23 -7 -9
-23 -41 -36 -71 -13 -30 -33 -74 -44 -98 -18 -37 -19 -45 -7 -52 8 -5 15 -17
15 -27 0 -10 7 -18 15 -18 8 0 20 -12 27 -27 7 -16 19 -28 28 -28 8 0 25 -6
36 -12 18 -11 23 -10 40 11 30 37 24 47 -25 46 -28 0 -52 6 -66 17 -26 21 -18
43 10 28 13 -7 21 -7 25 0 4 6 16 3 32 -10 32 -25 47 -26 41 -2 -6 22 16 57
31 48 10 -7 31 23 31 43 0 6 -8 11 -17 12 -12 1 -10 3 6 8 27 7 41 31 19 31
-8 0 -19 -5 -26 -12 -9 -9 -12 -9 -12 -1 0 16 21 28 42 25 19 -3 53 52 43 68
-3 6 -2 10 3 10 6 0 12 6 15 13 3 6 17 38 31 69 l26 58 -62 31 c-42 21 -63 28
-66 20 -3 -8 -10 -5 -19 8 -17 26 -52 28 -55 4z m102 -43 c0 -13 -5 -18 -15
-14 -12 5 -13 10 -4 20 15 19 19 18 19 -6z m-44 -192 c3 -4 13 -4 22 -1 10 4
13 2 8 -5 -10 -16 -38 -15 -61 1 -17 13 -17 14 3 12 12 -1 24 -4 28 -7z m-81
-88 c3 -5 1 -10 -4 -10 -6 0 -11 5 -11 10 0 6 2 10 4 10 3 0 8 -4 11 -10z
m-28 -42 c-3 -8 -6 -5 -6 6 -1 11 2 17 5 13 3 -3 4 -12 1 -19z"/>
<path d="M2465 15544 c-17 -39 -22 -61 -15 -69 5 -6 7 -15 3 -18 -3 -4 0 -8 8
-11 8 -2 23 -7 34 -12 11 -4 23 -6 28 -6 4 1 7 -5 7 -14 0 -8 -4 -13 -9 -9 -6
3 -15 -3 -20 -13 -6 -11 -20 -22 -31 -25 -15 -4 -20 0 -21 16 -3 52 -5 60 -15
64 -5 2 -18 -12 -27 -31 l-16 -34 48 -26 c49 -25 64 -25 54 0 -3 8 0 14 6 14
6 0 11 -5 11 -11 0 -6 7 -9 15 -5 8 3 25 1 37 -4 13 -5 17 -9 11 -9 -14 -1
-18 -41 -5 -41 4 0 14 6 21 13 11 10 13 9 8 -4 -5 -17 48 -56 56 -42 8 13 -11
53 -25 53 -7 0 -13 11 -13 25 0 14 4 24 8 22 5 -1 7 -5 5 -9 -4 -8 42 -58 53
-58 4 0 5 10 1 22 -3 14 -2 19 7 14 6 -4 23 2 37 13 22 18 28 19 40 6 8 -8 13
-20 12 -27 -2 -7 5 -12 15 -12 23 2 22 -5 -4 -14 -17 -7 -11 -11 34 -22 54
-12 78 -32 56 -46 -6 -3 -16 2 -24 12 -11 15 -16 17 -26 7 -18 -18 -53 -17
-46 1 3 8 -4 21 -18 30 -15 10 -22 22 -19 31 4 9 0 15 -9 15 -21 0 -33 -20
-17 -30 9 -6 7 -9 -9 -12 -20 -3 -21 -4 -7 -23 14 -17 17 -18 26 -5 8 13 10
13 10 -2 0 -10 6 -18 13 -19 6 0 4 -4 -7 -8 -15 -6 -3 -14 54 -40 40 -17 75
-30 78 -27 3 3 10 0 16 -8 14 -17 298 -144 332 -149 14 -2 29 -8 32 -14 19
-28 122 -56 122 -33 0 6 4 9 9 6 5 -3 14 1 20 8 15 18 -4 33 -22 17 -15 -12
-42 2 -33 17 3 5 -1 12 -9 16 -8 3 -17 0 -21 -6 -4 -7 -10 -5 -16 6 -5 9 -7
20 -3 25 3 5 1 12 -5 16 -6 4 -5 11 3 19 15 17 28 11 20 -9 -6 -16 14 -20 35
-6 10 6 11 18 3 52 -5 24 -15 45 -20 47 -16 5 -13 22 3 22 14 0 31 -43 27 -68
-1 -8 5 -12 16 -10 14 2 19 -5 21 -35 2 -24 8 -37 15 -34 7 2 11 15 9 28 -3
23 -2 23 12 4 15 -19 15 -19 16 7 0 17 5 27 12 25 7 -1 14 8 16 20 3 23 -27
50 -65 56 -12 1 -27 8 -35 14 -13 11 -368 173 -378 173 -3 0 -7 -11 -8 -26 -1
-14 2 -23 8 -19 6 3 10 -1 10 -10 0 -12 -4 -14 -16 -7 -11 6 -31 2 -62 -13
-41 -20 -48 -21 -58 -7 -6 8 -17 13 -25 10 -10 -4 -15 4 -16 26 -2 17 -4 40
-5 50 -2 10 2 21 8 23 7 2 10 -9 8 -32 -2 -26 3 -41 19 -55 25 -24 26 -24 66
-4 19 10 30 22 27 29 -3 8 0 16 7 18 23 8 -27 49 -103 84 -41 19 -79 36 -85
37 -5 1 -20 8 -33 15 -18 10 -26 10 -38 0 -12 -10 -13 -9 -8 4 4 13 -7 22 -48
40 -33 15 -57 21 -65 15 -7 -5 -14 -5 -18 2 -3 5 0 10 7 11 15 1 -61 37 -80
38 -7 1 -23 -24 -37 -55z m70 26 c3 -5 -1 -10 -10 -10 -9 0 -13 5 -10 10 3 6
8 10 10 10 2 0 7 -4 10 -10z m15 -72 c0 -17 -3 -28 -7 -24 -9 9 -13 38 -7 48
10 15 14 8 14 -24z m70 1 c0 -11 -4 -18 -10 -14 -5 3 -7 12 -3 20 7 21 13 19
13 -6z m54 -4 c-4 -8 -8 -15 -10 -15 -2 0 -4 7 -4 15 0 8 4 15 10 15 5 0 7 -7
4 -15z m0 -50 c-9 -14 -19 -24 -21 -21 -7 7 16 46 28 46 5 0 2 -11 -7 -25z
m16 -70 c0 -17 -27 -32 -37 -21 -4 3 2 13 13 21 24 18 24 18 24 0z m454 -91
c9 -22 8 -24 -9 -18 -8 4 -15 12 -15 20 0 19 16 18 24 -2z m-121 -16 c9 2 17
-2 17 -7 0 -6 -3 -10 -7 -10 -20 3 -35 -3 -52 -20 -19 -19 -19 -19 -23 9 -2
16 -1 27 3 24 4 -2 10 0 14 6 4 6 12 7 18 3 7 -4 20 -6 30 -5z m184 -50 c3
-16 1 -18 -10 -9 -8 6 -17 7 -22 3 -4 -4 -2 4 4 16 14 26 23 23 28 -10z m-263
-3 c3 -8 15 -15 26 -15 12 0 18 -4 15 -10 -3 -5 -1 -10 4 -10 6 0 11 -5 11
-10 0 -7 -7 -7 -21 0 -28 15 -59 43 -59 52 0 14 18 9 24 -7z m173 -7 c-3 -8
-6 -5 -6 6 -1 11 2 17 5 13 3 -3 4 -12 1 -19z m-89 -27 c-12 -4 -29 20 -21 32
3 4 11 0 18 -10 9 -12 10 -19 3 -22z m292 25 c0 -11 -19 -15 -25 -6 -3 5 1 10
9 10 9 0 16 -2 16 -4z m-160 -136 c0 -5 -5 -10 -11 -10 -5 0 -7 5 -4 10 3 6 8
10 11 10 2 0 4 -4 4 -10z m180 -90 c0 -5 -2 -10 -4 -10 -3 0 -8 5 -11 10 -3 6
-1 10 4 10 6 0 11 -4 11 -10z"/>
<path d="M3567 15324 c-4 -4 -7 -14 -7 -23 0 -11 3 -12 11 -4 6 6 10 16 7 23
-2 6 -7 8 -11 4z"/>
<path d="M8687 15262 c-29 -32 -63 -130 -137 -392 -217 -773 -320 -1069 -495
-1420 -145 -291 -208 -488 -209 -651 -1 -82 2 -100 18 -118 11 -12 29 -21 40
-21 42 0 147 75 287 204 237 219 350 315 437 373 93 62 114 86 167 193 92 183
193 581 155 605 -6 4 -10 73 -10 173 -1 193 -1 193 -108 647 -103 435 -108
449 -145 407z"/>
<path d="M3375 15260 c-3 -5 1 -10 10 -10 9 0 13 5 10 10 -3 6 -8 10 -10 10
-2 0 -7 -4 -10 -10z"/>
<path d="M2670 15250 c20 -13 33 -13 25 0 -3 6 -14 10 -23 10 -15 0 -15 -2 -2
-10z"/>
<path d="M21006 14695 c-164 -52 -305 -100 -313 -106 -7 -7 -16 -9 -20 -6 -9
9 -44 -13 -38 -24 4 -5 2 -9 -4 -9 -5 0 -11 5 -13 12 -3 7 -12 9 -23 5 -17 -7
-17 -8 1 -22 11 -8 14 -15 7 -15 -7 0 -13 -12 -13 -27 0 -22 -2 -25 -10 -13
-5 8 -10 25 -10 38 0 12 -6 22 -12 22 -29 0 -133 -39 -131 -49 2 -6 -9 -8 -27
-4 -19 3 -30 1 -30 -6 0 -6 -13 -11 -29 -11 -17 0 -33 -4 -36 -10 -3 -5 -15
-10 -26 -10 -10 0 -19 -4 -19 -10 0 -5 4 -10 9 -10 5 0 9 -12 9 -27 0 -15 5
-29 11 -31 6 -2 11 -14 11 -27 0 -13 5 -27 11 -30 6 -4 8 -13 5 -21 -9 -23 22
-84 39 -78 11 5 13 10 5 19 -8 9 -8 15 0 20 5 3 10 1 10 -6 0 -6 8 -9 20 -6
11 3 18 1 14 -4 -7 -12 -2 -12 58 10 29 10 88 29 131 41 42 13 77 27 77 32 0
4 15 8 34 8 18 0 39 7 46 15 7 8 16 12 21 9 5 -3 27 1 49 7 28 9 37 15 28 21
-8 5 -4 7 12 3 28 -5 522 146 527 162 5 14 -63 227 -73 230 -5 1 -143 -40
-308 -92z m267 -85 c4 -15 0 -20 -14 -20 -20 0 -23 8 -13 34 7 20 20 13 27
-14z m27 -61 c-7 -11 -14 -18 -17 -15 -3 3 0 12 7 21 18 21 23 19 10 -6z
m-609 -2 c-1 -12 -15 -9 -19 4 -3 6 1 10 8 8 6 -3 11 -8 11 -12z m-145 -55
c-4 -3 -11 0 -16 8 -15 24 -11 33 6 15 9 -9 13 -19 10 -23z m118 11 c5 -12 9
-14 18 -5 15 15 28 15 28 2 0 -5 -7 -10 -15 -10 -8 0 -15 -8 -16 -17 0 -11 -3
-13 -6 -5 -2 6 -12 12 -22 12 -10 0 -17 8 -18 20 -2 24 22 27 31 3z m54 -53
c-14 -22 -24 -19 -15 5 4 8 11 15 17 15 6 0 6 -7 -2 -20z m-138 -10 c0 -5 -4
-10 -10 -10 -5 0 -10 5 -10 10 0 6 5 10 10 10 6 0 10 -4 10 -10z m211 -23 c23
-6 25 -32 3 -41 -8 -3 -12 -2 -9 4 11 18 -5 32 -21 19 -11 -9 -14 -8 -14 4 0
8 3 24 7 34 7 16 8 16 11 2 2 -10 12 -19 23 -22z m-221 -78 c0 -6 -4 -7 -10
-4 -5 3 -10 11 -10 16 0 6 5 7 10 4 6 -3 10 -11 10 -16z"/>
<path d="M2007 14230 c-5 -21 1 -24 27 -14 22 9 20 34 -3 34 -10 0 -21 -9 -24
-20z"/>
<path d="M2055 14217 c-20 -29 -19 -36 7 -29 14 3 19 2 14 -6 -4 -7 -1 -15 8
-18 8 -3 17 -12 20 -20 8 -22 -4 -43 -21 -37 -13 5 -15 1 -10 -18 6 -23 5 -23
-8 -5 -14 19 -15 17 -16 -20 -1 -21 -1 -44 0 -50 2 -14 -29 -28 -38 -18 -3 4
0 9 7 11 14 5 16 43 2 43 -5 0 -10 9 -10 20 0 13 5 18 15 14 11 -4 15 0 15 16
0 13 8 24 20 27 22 6 26 18 9 29 -6 3 -15 0 -20 -7 -7 -11 -9 -10 -9 4 0 22
-25 17 -25 -4 -1 -20 -15 -40 -25 -34 -7 4 -24 -54 -36 -130 -2 -11 -17 -76
-34 -145 -39 -164 -50 -230 -37 -230 6 0 3 -6 -6 -12 -20 -15 -35 -118 -17
-118 5 0 10 -7 10 -15 0 -8 7 -15 15 -15 17 0 20 27 4 32 -8 3 -6 10 6 21 9
10 15 24 12 32 -7 17 10 30 47 34 18 2 26 -1 22 -8 -4 -6 -14 -11 -22 -11 -17
0 -18 -12 -3 -27 14 -14 89 14 89 34 0 7 5 13 10 13 23 0 7 -28 -25 -43 -22
-11 -33 -21 -29 -31 4 -10 -4 -16 -26 -21 -17 -4 -29 -12 -27 -18 3 -7 10 -11
16 -9 6 1 11 -2 11 -8 0 -5 9 -10 20 -10 11 0 20 -4 20 -10 0 -14 26 -12 38 3
6 6 12 28 14 47 3 19 7 42 11 50 3 8 18 69 32 135 15 66 33 147 41 181 18 76
18 73 -6 67 -11 -3 -20 -9 -20 -14 0 -5 -5 -9 -11 -9 -6 0 -8 7 -5 16 3 9 -5
29 -19 48 -14 18 -25 37 -25 41 0 5 6 1 13 -10 9 -12 19 -15 28 -10 12 7 12 6
1 -7 -9 -12 -10 -18 -2 -23 6 -4 14 -4 17 -1 3 3 12 1 19 -5 10 -8 16 -3 27
18 19 36 60 222 53 240 -3 7 0 13 7 14 20 1 -75 28 -116 33 -30 3 -40 0 -52
-17z m60 -25 c-4 -4 -10 -1 -12 6 -3 6 -9 10 -14 6 -5 -3 -9 -1 -9 4 0 18 13
21 27 6 9 -8 12 -18 8 -22z m35 -131 c0 -5 -15 -15 -32 -22 -18 -7 -36 -14
-40 -17 -5 -2 -8 0 -8 5 0 4 17 16 38 25 45 21 42 20 42 9z"/>
<path d="M2269 14198 c-2 -3 -8 -40 -13 -73 -1 -11 -6 -28 -10 -37 -4 -9 -5
-22 -1 -29 4 -6 3 -14 -4 -18 -6 -4 -13 -23 -15 -42 -4 -33 -2 -36 30 -48 18
-7 39 -9 44 -6 6 4 17 2 24 -5 8 -6 27 -8 43 -5 18 4 23 3 15 -3 -9 -6 5 -13
45 -21 32 -7 66 -15 76 -17 13 -4 17 1 17 23 0 15 5 35 10 43 8 12 10 9 10
-12 0 -14 6 -29 13 -32 10 -5 10 -7 0 -12 -20 -9 -15 -24 8 -24 11 0 17 5 14
10 -3 6 -1 10 4 10 6 0 11 -6 11 -14 0 -8 15 -16 38 -19 20 -3 121 -26 225
-50 186 -44 187 -44 193 -23 3 11 15 67 28 123 l23 102 -96 22 c-53 12 -130
29 -171 39 -73 17 -75 17 -78 -1 -2 -11 -12 -24 -23 -29 -10 -6 -19 -18 -20
-28 0 -14 -2 -14 -9 3 -13 31 -12 35 11 35 14 0 19 5 16 14 -3 8 -1 16 6 19 6
2 3 6 -7 10 -10 4 -15 3 -11 -3 10 -16 -15 -11 -32 6 -12 11 -27 14 -52 10
-20 -3 -30 -2 -23 3 16 10 -141 46 -163 37 -8 -3 -15 -2 -15 3 0 5 -20 14 -45
20 -49 12 -92 1 -79 -22 5 -9 4 -9 -6 0 -11 10 -11 15 0 28 10 13 9 15 -9 15
-11 0 -22 -1 -22 -2z m241 -92 c0 -2 -8 -10 -17 -17 -16 -13 -17 -12 -4 4 13
16 21 21 21 13z m155 -100 c12 -12 12 -15 1 -19 -8 -3 -16 2 -19 14 -6 23 -1
24 18 5z m-14 -48 c10 -7 6 -8 -12 -4 -19 4 -29 1 -33 -9 -8 -21 -26 -19 -26
3 0 22 41 45 51 29 4 -5 13 -14 20 -19z m-157 -23 c-6 -16 -24 -21 -24 -7 0
11 11 22 21 22 5 0 6 -7 3 -15z m147 -28 c-1 -12 -15 -9 -19 4 -3 6 1 10 8 8
6 -3 11 -8 11 -12z"/>
<path d="M2147 13633 c-5 -8 -37 -126 -37 -137 0 -3 7 -6 15 -6 8 0 15 5 15
10 0 6 9 1 20 -10 24 -24 27 -38 4 -19 -13 11 -17 10 -25 -4 -6 -9 -17 -17
-24 -17 -8 0 -15 -7 -15 -15 0 -22 37 -55 55 -49 8 4 21 2 28 -4 6 -5 99 -29
206 -53 121 -27 202 -50 217 -62 29 -23 62 -85 57 -109 -3 -9 3 -18 14 -21 60
-17 125 -28 130 -24 3 4 18 0 34 -8 47 -25 55 -20 67 43 20 104 -15 200 -104
281 -78 71 -141 98 -336 142 -95 21 -176 39 -180 39 -5 0 -8 -9 -8 -21 0 -12
-8 -23 -20 -26 -11 -3 -20 -14 -20 -24 0 -11 -5 -19 -11 -19 -5 0 -8 4 -5 9 4
5 1 22 -5 38 -8 22 -8 26 2 16 20 -19 32 -15 26 8 -4 15 -2 19 9 15 8 -3 14
-1 14 4 0 6 -9 10 -20 10 -11 0 -20 -5 -20 -12 0 -7 -5 -5 -12 5 -15 18 -63
33 -71 20z m258 -73 c3 -5 1 -10 -4 -10 -6 0 -11 5 -11 10 0 6 2 10 4 10 3 0
8 -4 11 -10z m-211 -51 c-8 -13 -24 -1 -24 18 0 13 3 13 15 3 8 -7 12 -16 9
-21z m-24 -84 c0 -8 -4 -15 -10 -15 -5 0 -10 7 -10 15 0 8 5 15 10 15 6 0 10
-7 10 -15z m460 -31 c0 -2 -7 -4 -15 -4 -8 0 -15 4 -15 10 0 5 7 7 15 4 8 -4
15 -8 15 -10z m77 -70 c-3 -3 -12 -4 -19 -1 -8 3 -5 6 6 6 11 1 17 -2 13 -5z
m3 -51 c0 -2 -7 -11 -15 -19 -13 -14 -15 -13 -15 10 0 18 4 24 15 20 8 -4 15
-8 15 -11z m98 -59 c-3 -14 -5 -12 -10 9 -3 19 -2 25 4 19 6 -6 8 -18 6 -28z
m-88 -23 c0 -12 -20 -25 -27 -18 -7 7 6 27 18 27 5 0 9 -4 9 -9z m73 -15 c4
-9 -3 -16 -18 -18 -21 -4 -23 -3 -14 13 12 22 25 24 32 5z"/>
<path d="M21115 12831 c-133 -60 -165 -255 -61 -369 55 -61 182 -86 251 -50
130 69 167 266 71 372 -56 60 -182 83 -261 47z"/>
<path d="M2388 12160 c-55 -10 -126 -46 -142 -74 -16 -27 -55 -66 -67 -66 -16
0 -48 -40 -72 -90 -18 -39 -21 -66 -24 -212 l-4 -168 105 0 104 0 4 138 c3
123 6 141 26 169 12 17 22 37 22 45 0 10 2 10 8 1 5 -8 13 -9 22 -3 21 13 74
12 105 -2 24 -11 29 -9 51 18 14 16 22 23 18 15 -6 -11 -1 -13 24 -8 34 7 39
-1 22 -34 -14 -26 -40 -25 -33 1 6 23 -4 25 -30 6 -15 -12 -15 -15 -3 -25 30
-25 43 -92 38 -207 l-4 -111 96 -7 c53 -4 100 -4 106 -1 6 4 10 54 10 116 0
90 -3 114 -17 127 -16 16 -16 17 0 20 13 3 17 14 17 43 0 41 -8 46 -41 29 -25
-14 -25 2 1 20 11 8 20 23 20 33 0 27 -47 121 -71 143 -21 19 -22 19 -36 -3
-19 -28 -29 -29 -36 -4 -3 12 1 22 10 25 8 3 11 10 8 16 -11 17 -20 11 -32
-20 -11 -28 -33 -42 -33 -20 0 6 4 10 10 10 5 0 9 14 7 32 -2 29 -7 33 -52 45
-55 14 -68 14 -137 3z m-25 -54 c3 3 16 -1 29 -10 12 -9 32 -16 43 -17 11 0
14 -3 8 -6 -7 -2 -13 -13 -13 -24 0 -14 7 -19 25 -19 14 0 26 5 26 10 1 6 2
14 3 19 3 26 16 20 16 -7 0 -22 5 -32 15 -32 8 0 15 4 15 9 0 5 9 7 20 4 26
-7 25 -24 0 -46 -25 -21 -36 -22 -44 -2 -3 10 -19 15 -42 15 -27 0 -37 5 -41
20 -3 11 -11 20 -18 20 -8 0 -17 9 -20 20 -4 11 -11 17 -17 14 -5 -4 -21 0
-35 7 -20 11 -26 11 -33 -1 -13 -21 -12 -60 1 -60 8 0 8 -5 -1 -15 -7 -8 -18
-15 -24 -15 -20 0 -57 31 -50 42 4 7 9 6 14 -2 13 -21 40 -3 40 27 0 46 28 69
61 52 9 -5 19 -6 22 -3z m162 -6 c-27 -12 -35 -12 -35 0 0 6 12 10 28 9 24 0
25 -1 7 -9z m-141 -111 c-6 -11 -24 -2 -24 11 0 5 7 7 15 4 8 -4 12 -10 9 -15z
m256 -193 c0 -3 -4 -8 -10 -11 -5 -3 -10 -1 -10 4 0 6 5 11 10 11 6 0 10 -2
10 -4z m-40 -52 c0 -8 -5 -12 -10 -9 -6 4 -8 11 -5 16 9 14 15 11 15 -7z m64
1 c-4 -8 -8 -15 -10 -15 -2 0 -4 7 -4 15 0 8 4 15 10 15 5 0 7 -7 4 -15z m-67
-47 c-3 -8 -6 -5 -6 6 -1 11 2 17 5 13 3 -3 4 -12 1 -19z m160 -10 c-3 -8 -6
-5 -6 6 -1 11 2 17 5 13 3 -3 4 -12 1 -19z m-107 -27 c0 -6 -4 -12 -9 -15 -13
-8 -42 4 -35 15 7 12 44 12 44 0z"/>
<path d="M1678 12065 c-3 -16 -1 -25 7 -25 18 0 38 27 30 40 -11 19 -33 10
-37 -15z"/>
<path d="M1744 12082 c-11 -7 -34 -46 -34 -57 0 -3 9 -1 20 5 16 9 20 8 20 -5
0 -8 6 -15 13 -15 7 0 18 -5 24 -11 13 -13 5 -51 -10 -42 -6 4 -8 -2 -4 -16 4
-18 3 -20 -8 -11 -8 7 -19 9 -25 5 -20 -12 -10 24 12 39 19 13 19 16 5 22 -9
3 -21 3 -27 -1 -5 -3 -10 0 -10 7 0 8 -6 6 -17 -6 -13 -13 -14 -20 -6 -23 7
-2 10 -10 7 -18 -3 -8 -12 -11 -19 -8 -12 4 -14 -39 -14 -256 0 -176 4 -261
11 -261 7 0 6 -5 -1 -14 -18 -21 -10 -107 11 -128 22 -22 38 -23 38 -3 0 8 -4
15 -10 15 -5 0 -10 7 -10 15 0 8 5 15 11 15 7 0 8 11 4 30 -5 23 -3 30 9 30 9
0 16 4 16 8 0 5 7 9 15 9 20 0 19 -13 -2 -21 -15 -6 -15 -8 -1 -22 14 -14 19
-14 51 8 20 12 38 32 40 43 3 18 4 18 11 3 7 -15 -21 -55 -41 -60 -5 0 -7 -9
-5 -19 2 -13 -5 -20 -22 -25 -14 -3 -26 -12 -26 -19 0 -14 45 -29 60 -20 4 3
10 -1 13 -7 3 -10 9 -10 23 -2 18 10 19 29 22 257 3 231 2 245 -15 242 -10 -1
-17 -8 -16 -14 2 -6 -2 -11 -7 -11 -5 0 -10 7 -10 15 0 8 -16 30 -36 48 -33
30 -35 34 -20 46 14 12 16 12 10 -3 -9 -23 25 -53 58 -53 23 0 28 6 37 43 13
52 13 222 0 230 -5 3 -7 8 -5 12 6 10 -126 14 -140 4z m39 -36 c-4 -6 -8 -5
-11 2 -2 7 -8 10 -13 6 -5 -3 -9 2 -9 10 0 13 3 14 19 4 11 -7 17 -17 14 -22z
m52 -6 c3 -5 1 -10 -4 -10 -6 0 -11 5 -11 10 0 6 2 10 4 10 3 0 8 -4 11 -10z
m15 -128 c-8 -3 -17 -8 -20 -11 -14 -16 -50 -30 -55 -21 -3 6 -1 10 5 10 7 0
23 9 37 20 14 11 30 17 36 13 7 -4 6 -8 -3 -11z m-99 -5 c4 -53 2 -71 -9 -75
-9 -3 -11 3 -6 22 4 19 2 28 -10 32 -9 3 -16 11 -16 18 0 15 40 18 41 3z m-10
-145 c-8 -15 -8 -21 1 -24 19 -7 -16 -38 -39 -37 -17 1 -17 2 0 6 9 2 17 13
17 24 0 23 19 63 27 56 2 -3 0 -14 -6 -25z m58 -24 c-9 -17 -10 -17 -27 0 -16
15 -16 18 -3 28 21 16 42 -5 30 -28z m21 -24 c0 -8 -4 -12 -10 -9 -5 3 -10 10
-10 16 0 5 5 9 10 9 6 0 10 -7 10 -16z m-60 -25 c-7 -11 -14 -19 -16 -16 -7 7
7 37 17 37 6 0 5 -9 -1 -21z m112 -71 c-15 -15 -26 -4 -18 18 5 13 9 15 18 6
9 -9 9 -15 0 -24z m-142 2 c0 -5 -5 -10 -11 -10 -5 0 -7 5 -4 10 3 6 8 10 11
10 2 0 4 -4 4 -10z m124 -59 c3 -5 -1 -11 -9 -15 -9 -3 -15 0 -15 9 0 16 16
20 24 6z m-149 -31 c3 -5 1 -10 -4 -10 -6 0 -11 5 -11 10 0 6 2 10 4 10 3 0 8
-4 11 -10z m165 -80 c0 -5 -5 -10 -11 -10 -5 0 -7 5 -4 10 3 6 8 10 11 10 2 0
4 -4 4 -10z m-173 -112 c-3 -8 -6 -5 -6 6 -1 11 2 17 5 13 3 -3 4 -12 1 -19z"/>
<path d="M12585 12019 c-137 -11 -235 -38 -339 -95 -108 -60 -198 -133 -271
-222 -233 -281 -375 -674 -440 -1212 -16 -139 -30 -365 -45 -760 -25 -651 -31
-941 -36 -1800 -3 -503 -7 -925 -10 -938 -7 -34 -40 -62 -73 -62 l-29 0 -4
-82 c-2 -46 1 -89 6 -95 13 -19 1172 -19 1178 0 2 6 2 49 0 95 l-4 82 -27 0
c-41 0 -94 40 -107 80 -14 45 -27 1164 -14 1233 20 102 73 171 169 216 50 23
68 26 166 26 98 0 116 -3 166 -26 72 -34 132 -88 160 -145 31 -64 41 -285 37
-831 -3 -408 -4 -441 -22 -477 -22 -44 -68 -76 -108 -76 l-28 0 0 -85 c0 -61
4 -85 13 -86 42 -3 298 3 442 12 274 16 445 41 551 80 l51 19 9 1058 c5 581 9
1327 9 1657 -1 552 -3 614 -22 775 -87 699 -261 1125 -600 1467 -83 83 -161
126 -288 158 -83 21 -308 48 -369 44 -12 -1 -66 -5 -121 -10z m311 -1510 c110
-15 175 -43 237 -99 121 -110 171 -297 137 -509 -13 -74 -32 -117 -103 -223
l-51 -78 -83 -29 c-111 -41 -198 -54 -309 -49 -80 4 -103 10 -166 41 -211 102
-331 358 -273 582 35 132 83 209 169 269 133 93 260 121 442 95z"/>
<path d="M1670 12004 c0 -8 5 -12 10 -9 6 4 8 11 5 16 -9 14 -15 11 -15 -7z"/>
<path d="M4165 11798 c-7 -83 -6 -94 10 -103 45 -25 90 -74 108 -115 16 -35
21 -72 24 -165 6 -183 51 -1193 68 -1520 36 -670 157 -1069 452 -1487 246
-348 340 -457 584 -676 189 -169 519 -402 519 -366 0 3 -22 65 -49 137 -131
351 -198 721 -172 952 67 584 296 932 766 1167 183 92 403 160 690 213 246 45
276 54 379 106 237 120 358 228 439 389 98 198 126 377 102 660 -17 198 -37
286 -95 399 -93 186 -260 341 -490 454 l-85 42 -1621 3 -1622 2 -7 -92z m2083
-543 c147 -35 276 -134 339 -261 33 -68 37 -84 41 -179 4 -92 2 -114 -21 -188
-31 -97 -84 -176 -153 -228 -113 -84 -229 -122 -374 -123 -211 0 -339 82 -430
275 -47 102 -56 169 -37 274 33 179 132 322 266 384 126 58 251 74 369 46z"/>
<path d="M19070 11866 c-216 -65 -389 -212 -485 -411 -149 -313 -160 -355
-160 -650 0 -234 8 -294 60 -471 32 -107 153 -348 210 -417 80 -99 236 -201
375 -245 341 -109 596 4 674 298 15 55 15 54 15 -107 l1 -163 290 0 290 0 0
70 c0 54 -3 70 -14 70 -8 0 -24 12 -35 26 -21 27 -21 31 -21 930 0 893 0 903
20 914 17 9 20 21 20 85 l0 75 -273 0 -274 0 4 -152 5 -153 -39 64 c-72 119
-193 212 -324 246 -85 23 -249 19 -339 -9z m371 -723 c61 -27 115 -76 150
-137 29 -51 29 -51 29 -223 0 -200 -8 -230 -85 -339 -58 -81 -105 -105 -216
-112 -88 -5 -205 17 -256 48 -41 25 -97 108 -124 185 -42 119 -32 289 23 404
40 84 143 169 233 192 55 15 196 4 246 -18z"/>
<path d="M8210 11795 c0 -69 2 -75 21 -75 34 0 80 -32 99 -70 17 -33 18 -153
21 -2338 l4 -2303 -37 -35 c-21 -19 -58 -39 -83 -46 l-45 -12 0 -83 0 -83 610
0 610 0 0 28 c0 15 3 50 6 78 l6 50 -61 23 c-103 37 -94 -62 -99 1024 -2 524
-2 950 1 947 2 -3 21 -53 40 -112 34 -102 94 -231 136 -292 44 -65 127 -140
189 -168 56 -27 71 -30 140 -27 58 3 90 11 132 31 131 64 236 223 287 436 9
39 20 69 25 66 12 -8 10 -1841 -2 -1865 -13 -24 -61 -49 -95 -49 -25 0 -25 -1
-25 -85 l0 -85 575 0 575 0 0 79 c0 74 -1 79 -23 85 -12 3 -36 19 -52 36 l-30
31 -3 2323 -2 2323 22 34 c13 19 44 45 71 58 l47 23 0 59 0 59 -153 0 c-85 0
-343 -3 -575 -7 l-422 -6 0 -58 c0 -47 3 -59 18 -63 34 -11 64 -54 73 -103 16
-85 -30 -604 -91 -1030 -99 -688 -226 -1091 -352 -1118 -43 -10 -106 32 -157
104 -208 298 -341 997 -341 1800 0 219 1 238 21 279 13 25 37 54 60 69 38 25
39 27 39 84 l0 59 -590 0 -590 0 0 -75z"/>
<path d="M16768 11863 c-28 -7 -25 -99 5 -131 22 -23 22 -28 28 -390 7 -395
10 -427 66 -562 77 -188 208 -310 403 -376 81 -28 335 -26 438 3 l72 21 0
-270 0 -271 -35 -33 c-33 -30 -35 -37 -35 -93 l0 -61 330 0 330 0 0 65 c0 60
-2 66 -24 75 -14 5 -30 19 -36 30 -14 27 -13 1774 2 1833 5 20 13 37 18 37 6
0 10 29 10 65 l0 65 -300 0 -300 0 0 -62 c0 -44 5 -67 18 -81 15 -17 17 -49
17 -346 0 -311 -1 -328 -21 -366 -61 -117 -264 -142 -375 -47 -68 59 -69 62
-69 420 0 304 1 321 20 345 15 18 20 40 20 81 l0 56 -282 -1 c-156 -1 -291 -3
-300 -6z"/>
<path d="M20728 11863 l-228 -3 0 -59 c0 -50 3 -61 23 -73 l22 -15 7 -519 c3
-286 8 -696 11 -913 l6 -394 -35 -35 c-32 -32 -34 -38 -34 -98 l0 -64 314 0
313 0 7 61 c7 60 6 63 -26 96 l-33 34 -6 147 -6 147 168 255 169 255 0 -393
c0 -421 -2 -442 -51 -457 -19 -6 -20 -12 -14 -68 4 -34 8 -63 9 -63 0 -1 144
-4 319 -8 306 -6 317 -6 317 12 0 11 3 40 6 65 6 43 5 47 -19 56 -57 22 -54
-22 -60 987 -6 1003 -8 974 44 974 16 0 19 7 19 40 l0 40 -315 0 -315 0 0 -40
c0 -28 4 -40 14 -40 8 0 22 -7 30 -16 13 -13 16 -43 16 -169 l0 -155 -156
-252 c-86 -139 -163 -260 -171 -268 -13 -13 -14 35 -9 385 6 383 7 401 26 417
15 12 20 29 20 61 0 75 -3 77 -84 75 -39 -2 -173 -4 -298 -5z"/>
<path d="M14140 11786 l0 -63 52 -5 c67 -7 94 -36 103 -110 3 -29 5 -996 3
-2148 l-3 -2095 -36 -135 c-25 -92 -38 -166 -42 -232 l-5 -98 21 12 c85 44
229 174 328 294 87 107 191 272 274 434 85 169 121 254 181 439 51 155 98 245
168 320 176 187 412 98 409 -154 -2 -198 -184 -739 -299 -890 -31 -41 -30 -45
5 -45 144 0 547 311 748 578 118 156 156 235 269 563 73 211 87 329 138 1099
22 324 26 476 30 1120 7 944 13 1021 81 1052 22 10 25 17 25 70 l0 58 -580 0
-580 0 0 -54 0 -53 38 -7 c42 -6 75 -35 91 -79 8 -19 11 -354 11 -1063 0
-1108 1 -1087 -49 -1113 -11 -6 -44 -16 -72 -21 -95 -18 -190 25 -227 102 -21
42 -21 63 -31 1051 -10 997 -10 1009 9 1048 21 39 63 69 100 69 18 0 20 6 20
60 l0 60 -590 0 -590 0 0 -64z"/>
<path d="M1932 11387 l2 -123 73 -1 c40 0 73 4 73 8 0 5 5 9 11 9 5 0 7 -4 4
-10 -4 -6 21 -10 68 -10 l75 0 -4 43 c-3 40 -3 40 8 15 7 -16 18 -28 26 -28
12 0 12 -3 2 -15 -7 -9 -10 -19 -6 -23 4 -4 14 2 22 13 13 18 16 18 24 4 8
-14 41 -16 233 -18 l224 -2 6 122 c4 67 6 123 5 124 -2 1 -83 5 -182 9 l-178
7 6 -25 c5 -19 1 -28 -14 -36 -12 -6 -17 -17 -14 -28 3 -9 -1 -6 -10 8 -12 21
-13 25 0 28 8 2 14 7 14 12 0 5 3 15 6 24 4 11 0 16 -12 16 -16 0 -17 -2 -4
-10 12 -8 11 -10 -7 -10 -12 0 -25 5 -28 10 -3 6 -17 10 -30 10 -13 0 -27 -4
-30 -10 -3 -5 -12 -10 -18 -10 -7 0 -6 4 3 10 10 6 -36 9 -137 9 -144 0 -153
-1 -168 -21 -8 -12 -18 -19 -21 -15 -4 4 -1 13 6 22 10 13 9 15 -8 15 -20 0
-21 -4 -20 -123z m428 8 c10 -12 10 -15 -3 -15 -8 0 -17 7 -21 15 -3 8 -2 15
3 15 5 0 14 -7 21 -15z m-140 -31 c0 -8 -4 -12 -10 -9 -5 3 -10 10 -10 16 0 5
5 9 10 9 6 0 10 -7 10 -16z m140 -23 c3 -2 -5 -2 -17 1 -15 4 -23 0 -26 -13
-3 -11 -10 -19 -15 -19 -17 0 -18 34 -2 51 16 17 15 17 60 -20z m-157 -51 c-3
-11 -9 -17 -14 -15 -10 7 -1 35 11 35 5 0 6 -9 3 -20z m157 11 c0 -17 -18 -21
-24 -6 -3 9 0 15 9 15 8 0 15 -4 15 -9z"/>
<path d="M2382 10218 c-7 -7 -12 -21 -13 -32 0 -12 -3 -15 -6 -8 -2 6 -11 12
-18 12 -7 0 -15 5 -17 12 -6 16 -58 1 -58 -17 0 -8 -4 -15 -10 -15 -5 0 -10 5
-10 10 0 14 -32 12 -53 -4 -16 -12 -16 -17 -5 -35 7 -11 19 -22 28 -25 11 -3
10 -4 -4 -5 -15 -1 -16 -4 -6 -16 9 -10 9 -15 1 -15 -6 0 -11 -4 -11 -10 0
-20 28 -10 34 13 5 18 8 20 16 7 5 -8 10 -27 10 -41 0 -21 -6 -28 -25 -32 -14
-2 -23 -2 -21 1 9 9 -15 43 -25 36 -8 -4 -8 0 -2 12 15 29 1 67 -27 74 -26 7
-73 -8 -65 -20 2 -4 -2 -7 -9 -7 -42 0 -151 -127 -185 -217 -29 -77 -44 -173
-36 -233 7 -61 4 -60 120 -35 l80 18 7 52 c4 29 17 72 29 96 21 45 126 153
143 148 6 -2 21 -1 34 3 22 5 24 10 20 50 -2 27 1 45 7 45 16 0 16 37 -1 50
-7 7 -11 16 -8 21 9 15 34 -17 34 -43 0 -13 5 -40 10 -60 11 -38 13 -39 93
-29 5 1 5 7 1 14 -6 10 -4 10 7 0 18 -18 39 -16 39 3 0 14 2 14 16 -1 10 -9
25 -14 35 -12 11 3 19 1 19 -5 0 -5 8 -7 19 -3 10 3 24 -1 31 -10 11 -13 15
-13 21 -3 7 10 9 9 9 -4 0 -10 5 -18 10 -18 16 0 100 -81 100 -96 0 -7 5 -16
12 -20 7 -4 8 -3 4 4 -9 15 9 15 35 1 16 -8 26 -7 44 5 30 20 35 20 35 1 0
-10 10 -15 33 -15 56 0 62 10 42 69 -36 108 -137 226 -238 278 -101 51 -295
81 -325 51z m18 -209 c0 -11 -4 -18 -10 -14 -5 3 -7 12 -3 20 7 21 13 19 13
-6z m-143 -31 c-3 -7 -5 -2 -5 12 0 14 2 19 5 13 2 -7 2 -19 0 -25z"/>
<path d="M2327 9984 c-4 -4 -7 -14 -7 -23 0 -11 3 -12 11 -4 6 6 10 16 7 23
-2 6 -7 8 -11 4z"/>
<path d="M2910 9770 c0 -5 5 -10 10 -10 6 0 10 5 10 10 0 6 -4 10 -10 10 -5 0
-10 -4 -10 -10z"/>
<path d="M2946 9771 c-8 -13 4 -42 15 -35 12 7 12 44 0 44 -6 0 -12 -4 -15 -9z"/>
<path d="M2860 9745 c0 -18 -17 -20 -22 -3 -7 21 -38 0 -38 -27 0 -18 7 -28
26 -35 14 -6 22 -14 19 -20 -9 -14 -51 16 -60 43 -6 18 -9 14 -15 -24 -4 -25
-18 -65 -31 -90 -13 -24 -22 -48 -21 -52 1 -5 -2 -6 -8 -2 -6 4 -27 -7 -48
-25 -54 -45 -53 -45 -100 -58 -24 -7 -52 -22 -63 -33 -10 -10 -19 -14 -19 -9
0 15 -67 12 -73 -2 -4 -10 -6 -10 -6 0 -1 8 -19 12 -55 12 -29 0 -73 7 -96 15
-23 8 -47 12 -54 8 -6 -3 -8 -3 -4 1 4 4 -9 22 -28 38 -19 17 -46 50 -60 74
-14 24 -28 44 -31 44 -2 0 -1 -6 3 -12 6 -9 3 -9 -9 0 -13 11 -29 11 -92 -2
-42 -9 -81 -18 -85 -21 -11 -7 6 -69 35 -126 60 -117 168 -210 294 -250 118
-39 381 -21 373 24 -2 10 2 17 8 17 5 0 10 -6 10 -14 0 -17 39 -9 47 9 2 7 -5
31 -16 54 -25 48 -25 51 -6 51 8 0 15 -7 15 -15 0 -8 6 -15 13 -15 9 0 9 -2
-1 -9 -11 -7 -11 -11 1 -22 7 -8 16 -21 20 -29 3 -9 6 -10 6 -2 1 6 8 12 17
12 30 0 179 124 169 141 -3 4 2 10 10 13 17 6 85 141 85 168 0 9 -4 19 -9 22
-11 7 -2 46 10 46 5 0 9 18 9 40 0 22 -2 40 -4 40 -2 0 -16 -7 -32 -15 -16 -8
-31 -11 -34 -6 -3 4 -12 11 -20 14 -9 4 -5 6 9 4 13 -1 26 4 29 12 3 9 -1 11
-17 6 -15 -5 -21 -2 -21 9 0 9 -7 16 -15 16 -8 0 -15 -7 -15 -15z m-25 -184
c-3 -6 -11 -11 -17 -11 -6 0 -6 6 2 15 14 17 26 13 15 -4z m55 -47 c0 -8 -4
-12 -10 -9 -5 3 -10 13 -10 21 0 8 5 12 10 9 6 -3 10 -13 10 -21z m-228 -107
c-9 -10 -9 -16 0 -25 9 -9 9 -12 0 -12 -20 0 -35 39 -21 56 8 10 15 12 22 5 7
-7 6 -15 -1 -24z m-147 -26 c-3 -5 -1 -12 5 -16 5 -3 9 -21 8 -40 -1 -19 -5
-32 -9 -29 -4 2 -11 -1 -14 -6 -12 -19 -35 22 -24 42 5 9 9 26 9 37 0 12 7 21
16 21 8 0 13 -4 9 -9z m187 -53 c-9 -9 -12 -7 -12 12 0 19 3 21 12 12 9 -9 9
-15 0 -24z m28 -44 c0 -8 -4 -14 -10 -14 -5 0 -10 5 -10 10 0 6 -7 10 -16 10
-8 0 -13 4 -10 9 9 13 46 1 46 -15z"/>
<path d="M6936 9480 c-153 -24 -346 -101 -429 -171 -56 -46 -180 -190 -233
-271 -155 -233 -250 -697 -215 -1047 33 -321 150 -674 272 -818 131 -155 342
-261 612 -307 71 -13 118 -14 260 -6 245 13 368 49 501 144 260 186 431 536
477 974 16 153 7 536 -16 662 -21 121 -76 287 -122 368 -50 90 -176 255 -226
295 -77 63 -226 122 -407 162 -89 19 -385 29 -474 15z m367 -823 c171 -55 278
-173 307 -340 44 -253 -150 -514 -405 -546 -227 -28 -420 87 -492 291 -27 80
-25 253 6 330 91 232 337 343 584 265z"/>
<path d="M20225 8556 c-28 -15 -36 -29 -25 -40 7 -7 14 -6 21 1 16 16 39 5 32
-14 -5 -13 -1 -15 20 -11 30 6 29 7 32 -45 1 -23 -2 -36 -9 -34 -6 2 -10 11
-8 21 3 18 -18 22 -35 5 -15 -15 3 -89 25 -105 16 -12 15 -13 -5 -14 -16 0
-23 6 -23 19 0 11 -4 22 -10 26 -5 3 -6 13 -3 22 5 12 2 15 -9 10 -18 -6 -28
11 -28 50 0 15 -5 23 -12 20 -7 -2 -12 -15 -11 -28 1 -13 -1 -18 -3 -11 -9 19
-24 14 -24 -8 0 -11 -7 -20 -15 -20 -23 0 -18 -38 8 -55 12 -8 34 -16 47 -17
14 -2 30 -8 35 -14 6 -6 62 -32 125 -59 63 -26 146 -61 183 -77 38 -16 70 -28
72 -26 1 2 6 14 10 27 5 16 4 21 -4 17 -6 -4 -11 0 -11 9 0 12 4 14 16 7 12
-6 29 -2 59 15 37 20 44 21 55 8 7 -8 19 -15 26 -15 8 0 14 -3 14 -7 0 -5 4
-25 9 -45 6 -28 5 -38 -5 -42 -10 -4 -12 4 -10 29 2 26 -4 40 -21 55 -27 24
-30 24 -66 8 -18 -9 -26 -19 -23 -30 2 -9 -3 -19 -10 -22 -11 -4 -10 -10 7
-27 26 -26 227 -112 246 -105 7 3 13 0 13 -7 0 -17 102 -57 117 -45 7 6 14 5
18 -2 3 -5 0 -10 -7 -11 -7 0 7 -9 31 -20 25 -11 50 -18 55 -16 19 7 61 120
48 125 -7 2 -10 8 -6 13 3 5 -2 11 -10 14 -9 3 -24 8 -33 12 -10 3 -21 5 -25
5 -5 -1 -8 5 -8 14 0 8 4 13 9 10 12 -8 22 20 15 39 -3 8 -13 14 -22 13 -10
-1 -26 0 -37 1 -16 1 -17 3 -6 10 8 5 11 16 8 25 -5 14 -11 15 -27 6 -13 -7
-20 -7 -20 0 0 5 6 10 12 10 7 0 -3 8 -22 19 -19 10 -37 17 -39 15 -9 -8 11
-54 23 -54 8 0 14 -11 14 -25 0 -14 -4 -25 -9 -25 -5 0 -9 6 -9 13 0 8 -8 24
-19 35 -18 22 -32 28 -30 15 3 -18 -2 -36 -7 -30 -4 3 -18 -2 -31 -13 -19 -15
-30 -17 -44 -10 -10 6 -16 17 -13 24 3 8 -2 16 -13 19 -16 4 -16 5 0 6 25 2
21 21 -5 23 -37 2 -42 3 -55 11 -7 5 -13 5 -13 0 0 -4 -5 0 -11 10 -15 25 -4
33 17 13 15 -16 18 -16 35 0 11 10 25 14 36 10 15 -6 15 -9 3 -16 -8 -5 -12
-10 -10 -12 3 -2 14 -8 25 -14 11 -6 21 -21 23 -33 4 -25 28 -23 26 2 -1 9 2
15 6 12 7 -4 20 17 20 31 0 3 -14 10 -31 16 -22 8 -27 13 -18 19 17 10 17 10
-66 43 -38 16 -88 37 -110 47 -22 10 -47 19 -55 21 -8 2 -17 6 -20 9 -4 5
-170 75 -225 95 -11 4 -26 6 -32 5 -7 -1 -13 3 -13 9 0 10 -37 28 -73 35 -9 2
-20 6 -25 8 -4 3 -16 0 -27 -7z m60 -26 c3 -5 1 -10 -4 -10 -6 0 -11 5 -11 10
0 6 2 10 4 10 3 0 8 -4 11 -10z m185 -74 c0 -3 -4 -8 -10 -11 -5 -3 -10 -1
-10 4 0 6 5 11 10 11 6 0 10 -2 10 -4z m184 -116 c13 -5 26 -16 30 -26 9 -25
0 -29 -13 -6 -8 14 -17 19 -32 15 -14 -4 -20 -2 -16 5 4 5 3 12 -3 14 -5 2 -6
14 -2 28 7 25 7 25 10 2 2 -13 14 -27 26 -32z m-51 -15 c4 -8 2 -17 -3 -20 -6
-4 -10 -4 -10 -1 0 2 -3 11 -6 20 -3 9 -2 16 4 16 5 0 12 -7 15 -15z m-288
-15 c3 -5 1 -10 -4 -10 -6 0 -11 5 -11 10 0 6 2 10 4 10 3 0 8 -4 11 -10z
m121 -22 c-6 -10 -14 -18 -17 -18 -4 0 -9 8 -11 18 -4 12 1 17 17 17 18 0 20
-3 11 -17z m218 7 c-4 -8 -1 -22 6 -30 11 -13 10 -14 -4 -9 -9 3 -16 1 -16 -6
0 -6 -5 -8 -12 -3 -7 4 -20 6 -30 5 -9 -2 -20 2 -24 9 -4 8 -3 9 4 5 12 -7 52
12 65 32 11 17 18 15 11 -3z m-156 -62 c6 -19 -25 -16 -32 3 -4 11 -1 14 11
12 9 -2 18 -9 21 -15z m465 -60 c4 -3 -1 -12 -11 -19 -22 -17 -38 -18 -23 -1
6 8 8 17 4 20 -3 4 0 7 9 7 8 0 18 -3 21 -7z m-140 -18 c-3 -9 -8 -14 -10 -11
-3 3 -2 9 2 15 9 16 15 13 8 -4z m79 -57 c-7 -7 -12 -8 -12 -2 0 14 12 26 19
19 2 -3 -1 -11 -7 -17z m56 -23 c-6 -13 -15 -22 -19 -19 -9 5 11 44 23 44 4 0
3 -11 -4 -25z m127 -43 c-2 -9 -4 -21 -4 -27 -1 -5 -5 -4 -10 4 -10 15 -3 53
9 46 5 -3 7 -13 5 -23z m-72 -7 c-7 -21 -13 -19 -13 6 0 11 4 18 10 14 5 -3 7
-12 3 -20z m-57 -12 c-10 -10 -19 5 -10 18 6 11 8 11 12 0 2 -7 1 -15 -2 -18z
m154 -47 c0 -11 -19 -15 -25 -6 -3 5 1 10 9 10 9 0 16 -2 16 -4z"/>
<path d="M20918 8278 c5 -5 16 -8 23 -6 8 3 3 7 -10 11 -17 4 -21 3 -13 -5z"/>
<path d="M21130 8169 c9 -16 14 -18 25 -9 11 9 14 4 17 -31 4 -54 23 -61 38
-14 7 20 10 37 8 38 -1 1 -17 10 -35 20 -17 9 -38 17 -47 17 -14 0 -15 -4 -6
-21z"/>
<path d="M2741 8135 c-82 -23 -147 -63 -207 -127 -93 -101 -105 -203 -44 -367
43 -116 79 -191 91 -191 10 0 170 68 178 76 2 2 -4 15 -14 30 -9 14 -15 35
-12 45 3 10 1 17 -4 14 -15 -10 -41 67 -43 125 -1 41 4 62 19 82 52 69 166 91
223 43 17 -14 34 -25 39 -25 4 0 13 -17 20 -37 6 -21 23 -64 37 -95 l26 -57
82 35 c46 20 89 38 96 41 16 7 17 0 -24 93 -41 93 -83 169 -126 222 -32 41
-93 83 -107 74 -5 -4 -11 -1 -13 5 -8 24 -149 33 -217 14z m299 -295 c0 -5 -4
-10 -10 -10 -5 0 -10 5 -10 10 0 6 5 10 10 10 6 0 10 -4 10 -10z m6 -97 c-10
-10 -19 5 -10 18 6 11 8 11 12 0 2 -7 1 -15 -2 -18z m49 -30 c-5 -10 -7 -21
-7 -25 3 -11 -16 -10 -23 2 -3 5 2 18 12 28 21 22 29 20 18 -5z"/>
<path d="M20530 8110 c-1 -8 -2 -23 -1 -32 1 -10 -4 -18 -12 -18 -8 0 -22 -21
-32 -47 -9 -27 -26 -68 -37 -93 -45 -98 -58 -132 -58 -148 0 -20 83 -58 101
-46 7 4 9 3 6 -3 -4 -6 6 -16 20 -22 23 -10 28 -10 36 5 6 11 12 13 16 5 4 -6
17 14 31 46 12 32 34 83 48 113 13 30 28 66 32 80 4 14 11 33 15 43 5 12 2 17
-9 17 -9 0 -16 5 -16 10 0 6 9 10 19 10 11 0 23 5 26 10 6 10 -6 14 -37 11 -9
-1 -20 3 -24 10 -4 8 -3 9 4 5 7 -4 12 -4 12 -1 0 9 -111 57 -118 51 -3 -3 3
-8 12 -12 9 -3 13 -10 10 -15 -9 -15 -20 -10 -32 14 -7 15 -11 17 -12 7z m35
-100 c3 -5 1 -10 -4 -10 -6 0 -11 5 -11 10 0 6 2 10 4 10 3 0 8 -4 11 -10z
m85 6 c0 -3 -4 -8 -10 -11 -5 -3 -10 -1 -10 4 0 6 5 11 10 11 6 0 10 -2 10 -4z
m-40 -200 c0 -3 -4 -8 -10 -11 -5 -3 -10 -1 -10 4 0 6 5 11 10 11 6 0 10 -2
10 -4z m-71 -57 c-22 -22 -35 -20 -26 6 4 8 16 15 27 15 20 0 20 0 -1 -21z"/>
<path d="M2435 7931 c-3 -5 -1 -12 5 -16 5 -3 10 1 10 9 0 18 -6 21 -15 7z"/>
<path d="M19903 7873 c-7 -15 -13 -35 -13 -44 0 -9 -6 -22 -14 -29 -8 -6 -13
-17 -10 -25 3 -7 0 -16 -5 -20 -6 -3 -18 -23 -26 -42 -12 -29 -13 -38 -3 -45
20 -12 27 -9 21 10 -3 12 1 19 9 19 8 0 14 -9 14 -20 -1 -23 45 -55 85 -59 13
-2 29 -8 34 -14 17 -19 210 -96 231 -92 10 1 18 -2 17 -7 -2 -10 463 -215 486
-215 6 0 11 5 11 10 0 6 10 10 23 9 l22 0 -22 -9 c-13 -5 -23 -12 -23 -14 0
-10 94 -46 100 -39 11 13 90 203 90 216 0 13 -563 257 -591 257 -9 0 -22 7
-29 15 -15 18 -40 20 -41 3 0 -7 -4 -3 -9 10 -5 12 -14 22 -21 22 -6 0 -9 -7
-5 -15 3 -10 -1 -15 -11 -15 -9 0 -25 -8 -35 -17 -18 -16 -18 -16 -12 3 4 10
14 27 22 36 14 16 9 20 -53 48 -74 33 -79 35 -70 20 3 -5 0 -10 -8 -10 -8 0
-17 9 -20 21 -4 16 -11 19 -26 14 -12 -4 -21 -2 -21 4 0 12 -24 26 -60 34 -20
5 -27 1 -37 -20z m259 -127 c-3 -5 -9 -1 -12 10 -4 10 -5 23 -2 28 3 5 9 1 12
-10 4 -10 5 -23 2 -28z m-12 -62 c0 -8 -4 -12 -10 -9 -5 3 -10 10 -10 16 0 5
5 9 10 9 6 0 10 -7 10 -16z m210 1 c0 -8 -7 -15 -15 -15 -26 0 -18 20 13 29 1
1 2 -6 2 -14z m-100 -15 c0 -11 7 -20 15 -20 8 0 15 -4 15 -8 0 -4 -10 -8 -22
-8 -26 0 -48 24 -41 43 8 21 33 15 33 -7z m-183 -52 c-3 -8 -6 -5 -6 6 -1 11
2 17 5 13 3 -3 4 -12 1 -19z m213 -53 c-10 -12 -10 -18 0 -30 13 -16 7 -45
-10 -45 -7 0 -9 8 -5 20 4 13 1 22 -9 26 -12 5 -12 8 2 24 20 22 40 27 22 5z
m37 -27 c-3 -8 -6 -5 -6 6 -1 11 2 17 5 13 3 -3 4 -12 1 -19z m68 12 c3 -5 -3
-10 -15 -10 -12 0 -18 5 -15 10 3 6 10 10 15 10 5 0 12 -4 15 -10z m30 -108
c-3 -3 -11 0 -18 7 -9 10 -8 11 6 5 10 -3 15 -9 12 -12z m361 -77 c-3 -9 -12
-12 -21 -9 -14 6 -14 9 2 26 18 20 30 10 19 -17z"/>
<path d="M3398 7762 c-109 -48 -198 -90 -198 -94 0 -5 9 -8 20 -8 22 0 25 -8
10 -30 -7 -10 -12 -12 -17 -4 -13 18 -83 25 -90 9 -3 -8 -9 -13 -13 -10 -9 5
-465 -189 -488 -208 -19 -15 -8 -73 32 -160 19 -42 37 -77 39 -77 2 0 18 5 35
11 22 7 29 15 25 26 -5 13 -1 15 19 10 18 -5 61 9 156 52 73 32 129 60 126 64
-3 3 2 5 12 5 21 -2 191 70 200 83 3 5 -10 9 -28 9 l-33 1 30 13 c26 12 32 11
42 -2 11 -14 26 -9 130 36 190 82 249 110 231 111 -9 1 -19 4 -21 9 -3 4 15 5
39 3 39 -3 44 -1 44 18 0 11 -15 51 -34 88 -19 38 -40 83 -47 101 -8 17 -16
32 -19 31 -3 0 -94 -40 -202 -87z m136 -8 c9 -3 16 -14 16 -23 -1 -15 -2 -15
-13 0 -7 9 -19 18 -27 22 -8 3 -10 6 -3 6 6 1 18 -2 27 -5z m79 -55 c-7 -24
-8 -22 -17 15 -6 25 -5 28 7 17 8 -6 13 -21 10 -32z m-213 -4 c0 -8 -2 -15 -4
-15 -2 0 -6 7 -10 15 -3 8 -1 15 4 15 6 0 10 -7 10 -15z m265 -25 c3 -5 1 -10
-4 -10 -6 0 -11 5 -11 10 0 6 2 10 4 10 3 0 8 -4 11 -10z m-231 -85 c3 -9 0
-15 -9 -15 -9 0 -12 6 -9 15 4 8 7 15 9 15 2 0 5 -7 9 -15z m-108 -51 c-4 -9
-9 -15 -11 -12 -3 3 -3 13 1 22 4 9 9 15 11 12 3 -3 3 -13 -1 -22z m-409 -172
c7 -4 11 -17 10 -29 0 -12 -5 -19 -10 -16 -4 3 -6 11 -3 19 6 16 -19 19 -29 4
-3 -5 -12 -10 -18 -9 -9 0 -9 2 1 6 6 2 12 11 12 19 0 15 18 18 37 6z m-67
-23 c0 -5 -4 -9 -10 -9 -5 0 -10 7 -10 16 0 8 5 12 10 9 6 -3 10 -10 10 -16z
m-20 -49 c0 -5 -5 -10 -11 -10 -5 0 -7 5 -4 10 3 6 8 10 11 10 2 0 4 -4 4 -10z
m-90 -46 c0 -8 -4 -12 -10 -9 -5 3 -10 10 -10 16 0 5 5 9 10 9 6 0 10 -7 10
-16z"/>
<path d="M19301 6771 c-33 -49 -61 -93 -61 -98 1 -13 48 -63 60 -63 5 0 10 -5
10 -12 0 -15 48 -79 259 -342 97 -121 184 -230 195 -243 l18 -24 -53 22 c-30
11 -112 41 -184 65 -71 24 -136 46 -143 49 -9 3 3 28 41 82 l54 77 -59 75
c-33 42 -63 79 -67 84 -4 4 -48 -49 -96 -118 -49 -69 -92 -125 -96 -125 -4 0
-57 17 -117 38 l-111 38 -82 -114 c-44 -62 -79 -116 -76 -118 3 -3 250 -75
548 -160 299 -85 551 -156 560 -159 11 -4 39 28 97 109 45 63 82 118 82 121 0
4 -39 61 -87 128 -200 281 -286 397 -295 397 -5 0 -6 5 -3 10 3 6 -4 10 -17
10 -17 0 -19 3 -9 9 11 7 9 14 -9 39 -12 17 -28 28 -35 26 -7 -3 -16 -1 -20 5
-3 7 0 8 9 5 9 -3 16 -3 16 1 0 16 -134 187 -138 176 -6 -17 -20 -13 -18 6 0
9 -9 22 -22 29 -12 6 -33 20 -45 31 -12 11 -27 23 -33 26 -6 4 -37 -32 -73
-82z m65 -48 c-10 -10 -19 5 -10 18 6 11 8 11 12 0 2 -7 1 -15 -2 -18z m0 -42
c1 -6 0 -7 -3 -1 -6 12 -50 13 -55 1 -1 -5 -9 -3 -16 5 -11 12 -9 14 8 14 11
0 20 5 20 11 0 15 43 -13 46 -30z m271 -143 c-3 -8 -6 -5 -6 6 -1 11 2 17 5
13 3 -3 4 -12 1 -19z m83 -118 c0 -5 -2 -10 -4 -10 -3 0 -8 5 -11 10 -3 6 -1
10 4 10 6 0 11 -4 11 -10z"/>
<path d="M6824 6658 c6 -31 183 -593 205 -649 l9 -26 1339 -6 c736 -4 2262 -8
3392 -9 l2053 -3 22 75 c36 120 166 421 236 547 l29 51 -30 -8 c-159 -46 -569
-123 -739 -140 -675 -65 -3271 -55 -5693 21 -376 11 -381 12 -652 120 -83 32
-157 59 -164 59 -10 0 -12 -9 -7 -32z"/>
<path d="M4015 6646 c-85 -27 -171 -101 -203 -175 -9 -22 -15 -65 -15 -107 l0
-71 -26 13 c-33 17 -106 28 -122 19 -6 -4 -26 -9 -44 -10 -59 -3 -141 -70
-170 -139 -11 -25 -10 -31 6 -47 25 -25 25 -48 1 -26 -10 10 -22 17 -25 17
-14 0 -7 -90 11 -147 19 -60 66 -143 81 -143 10 0 95 61 99 72 2 4 9 8 16 8 7
0 21 9 30 19 15 17 16 25 7 54 -23 67 15 124 88 134 37 5 44 2 78 -33 21 -22
47 -51 58 -66 l20 -26 82 59 83 60 -35 52 c-62 94 -57 163 18 213 57 39 111
39 161 1 l36 -28 51 37 c33 24 49 42 46 53 -4 17 9 35 31 42 21 7 -38 77 -101
119 -90 60 -171 75 -262 46z m-5 -57 c0 -5 -4 -9 -10 -9 -5 0 -10 7 -10 16 0
8 5 12 10 9 6 -3 10 -10 10 -16z m-70 -9 c0 -5 -10 -10 -22 -10 -19 0 -20 2
-8 10 19 13 30 13 30 0z m87 -43 c-11 -24 -46 -31 -59 -12 -14 19 -8 27 16 21
14 -3 28 -2 31 4 13 20 23 9 12 -13z m128 -5 c-3 -3 -11 0 -18 7 -9 10 -8 11
6 5 10 -3 15 -9 12 -12z m-281 -18 c23 -9 20 -23 -4 -17 -11 3 -20 9 -20 14 0
11 3 11 24 3z m296 -58 c0 -2 -7 -7 -16 -10 -8 -3 -12 -2 -9 4 6 10 25 14 25
6z m-550 -178 c0 -3 -9 -4 -20 -1 -16 4 -18 8 -9 20 10 11 14 11 20 1 5 -7 9
-16 9 -20z m-40 -47 c0 -12 -28 -22 -34 -12 -3 5 -3 11 1 15 9 9 33 7 33 -3z
m80 -46 c0 -8 -4 -15 -10 -15 -5 0 -7 7 -4 15 4 8 8 15 10 15 2 0 4 -7 4 -15z
m-40 -16 c0 -14 -5 -19 -17 -17 -23 4 -28 25 -6 31 10 3 19 5 21 6 1 0 2 -8 2
-20z m-40 -159 c0 -5 -7 -10 -16 -10 -8 0 -12 5 -9 10 3 6 10 10 16 10 5 0 9
-4 9 -10z m-47 -7 c-7 -2 -19 -2 -25 0 -7 3 -2 5 12 5 14 0 19 -2 13 -5z"/>
<path d="M4370 6450 c0 -5 5 -10 10 -10 6 0 10 5 10 10 0 6 -4 10 -10 10 -5 0
-10 -4 -10 -10z"/>
<path d="M4406 6415 c-18 -13 -14 -41 5 -30 5 4 5 -3 0 -17 -9 -26 -45 -35
-66 -18 -11 9 -21 7 -45 -10 -17 -12 -29 -25 -27 -29 1 -3 15 -31 29 -61 14
-31 33 -62 42 -69 17 -14 22 -41 8 -41 -5 0 -14 10 -20 23 l-11 22 0 -22 c-1
-12 -15 -38 -32 -58 l-31 -35 63 -72 c52 -60 67 -72 88 -70 29 4 81 48 81 69
0 7 4 13 10 13 5 0 17 26 26 57 18 61 14 175 -5 181 -6 2 -9 7 -6 12 3 5 0 21
-5 37 -13 34 -72 133 -80 133 -3 0 -13 -7 -24 -15z m-5 -180 c10 6 11 5 3 -4
-14 -15 -44 -4 -44 17 0 13 2 13 13 -3 9 -11 19 -15 28 -10z m99 9 c0 -2 -9
-4 -20 -4 -11 0 -20 4 -20 9 0 5 9 7 20 4 11 -3 20 -7 20 -9z m10 -155 c0 -6
-4 -7 -10 -4 -5 3 -10 11 -10 16 0 6 5 7 10 4 6 -3 10 -11 10 -16z"/>
<path d="M4360 6380 c-8 -5 -19 -6 -25 -2 -5 3 -4 -2 4 -12 13 -15 16 -15 30
-2 17 18 12 29 -9 16z"/>
<path d="M3611 5852 c-44 -31 -81 -60 -81 -64 0 -17 94 -119 136 -146 66 -44
140 -68 160 -51 9 7 28 14 42 15 15 1 36 5 47 9 16 5 17 5 5 -4 -21 -14 -7
-23 24 -15 21 5 25 10 20 28 -5 17 -4 19 7 9 18 -18 39 -16 39 3 0 8 5 12 11
8 7 -4 7 2 -1 17 -12 23 -91 161 -95 167 -1 1 -19 -5 -40 -14 -58 -24 -96 -12
-148 46 l-44 49 -82 -57z m133 -41 c-2 -2 1 -10 7 -17 14 -18 -8 -29 -27 -13
-12 10 -17 8 -30 -7 -9 -11 -13 -13 -10 -4 3 8 8 22 12 30 3 8 16 15 29 15 13
0 21 -2 19 -4z m76 -56 c0 -2 -9 -9 -20 -15 -16 -9 -20 -8 -20 5 0 8 9 15 20
15 11 0 20 -2 20 -5z m-90 -20 c0 -8 -4 -15 -10 -15 -5 0 -10 7 -10 15 0 8 5
15 10 15 6 0 10 -7 10 -15z m250 -41 c0 -3 -7 -12 -15 -21 -20 -19 -32 -10
-14 11 14 15 29 21 29 10z"/>
<path d="M18175 5348 c-5 -5 -46 -42 -90 -82 l-79 -73 23 -28 c12 -16 105
-115 207 -221 185 -192 204 -206 257 -196 10 2 16 9 14 15 -2 6 9 22 25 35 15
13 26 28 23 32 -3 5 6 20 20 35 15 14 25 32 23 40 -3 12 -369 417 -401 443 -8
6 -15 6 -22 0z m360 -438 c-3 -5 -10 -10 -16 -10 -5 0 -9 5 -9 10 0 6 7 10 16
10 8 0 12 -4 9 -10z m-74 -37 c-12 -20 -14 -14 -5 12 4 9 9 14 11 11 3 -2 0
-13 -6 -23z m73 -44 c-6 -11 -44 -12 -44 -1 0 4 11 8 25 8 14 1 22 -2 19 -7z
m-59 -39 c3 -5 1 -10 -4 -10 -6 0 -11 5 -11 10 0 6 2 10 4 10 3 0 8 -4 11 -10z"/>
<path d="M17638 4853 c-26 -27 -61 -60 -80 -74 -18 -15 -31 -29 -28 -32 3 -3
167 -53 364 -112 254 -75 361 -103 366 -95 5 8 9 7 13 -4 13 -33 67 -12 67 26
0 10 5 18 10 18 6 0 10 7 10 15 0 9 6 18 14 21 8 3 16 14 19 25 3 10 18 24 34
30 23 8 25 12 12 19 -8 5 -26 11 -40 14 -13 3 -91 25 -174 49 -399 118 -504
147 -522 147 -11 0 -40 -21 -65 -47z"/>
<path d="M18603 4860 c-3 -11 -10 -20 -15 -20 -5 0 -14 -13 -19 -30 -6 -16
-15 -30 -20 -30 -12 0 -41 -59 -34 -70 11 -17 37 -11 42 11 4 15 8 17 14 8 6
-11 9 -10 15 4 3 10 17 17 31 17 19 0 23 3 16 13 -13 18 -8 59 10 72 11 8 12
16 6 28 -13 23 -40 21 -46 -3z"/>
<path d="M18652 4762 c-38 -83 -37 -84 91 -122 61 -18 118 -35 125 -37 6 -3
12 -1 12 3 -1 13 -184 204 -196 204 -6 0 -20 -22 -32 -48z"/>
<path d="M18445 4730 c3 -5 10 -10 16 -10 5 0 9 5 9 10 0 6 -7 10 -16 10 -8 0
-12 -4 -9 -10z"/>
<path d="M18560 4700 c0 -5 7 -10 15 -10 8 0 15 5 15 10 0 6 -7 10 -15 10 -8
0 -15 -4 -15 -10z"/>
<path d="M17590 4680 c0 -3 97 -112 216 -241 119 -129 238 -256 263 -284 25
-27 78 -83 118 -123 39 -41 71 -77 72 -80 1 -24 37 -2 113 70 l88 83 -103 108
c-94 97 -127 123 -127 98 0 -5 5 -12 10 -14 6 -3 5 -4 -2 -3 -7 2 -12 13 -10
26 1 14 -13 38 -41 68 -24 26 -67 73 -96 104 -46 50 -63 60 -129 82 -43 14
-95 30 -117 35 -22 5 -88 25 -147 44 -60 19 -108 31 -108 27z"/>
<path d="M18469 4662 c-33 -34 -109 -153 -104 -162 3 -5 16 -9 28 -8 12 0 36
-7 52 -16 17 -9 36 -16 43 -16 8 0 64 -16 125 -35 62 -19 121 -35 133 -37 14
-2 47 21 104 74 46 43 81 80 78 84 -4 3 -60 22 -125 41 -204 59 -225 64 -239
52 -6 -5 -27 -14 -45 -19 l-32 -9 23 24 c25 27 25 30 -5 38 -12 3 -27 -1 -36
-11z m27 -90 c-3 -3 -1 -11 5 -19 9 -10 7 -13 -9 -13 -11 0 -25 -7 -32 -15 -9
-11 -16 -13 -23 -6 -17 17 11 59 39 59 14 0 22 -3 20 -6z"/>
<path d="M5590 4299 c-54 -23 -89 -59 -110 -116 -64 -169 70 -328 244 -291 36
8 60 21 91 53 52 52 68 98 63 180 -5 78 -35 126 -96 156 -49 24 -154 34 -192
18z"/>
<path d="M16700 4130 c-30 -22 -62 -42 -70 -46 -42 -17 -60 -28 -60 -38 0 -19
214 -369 229 -374 10 -3 12 1 8 17 -6 23 0 26 22 12 9 -6 10 -14 5 -22 -16
-26 -12 -69 7 -83 10 -7 16 -15 13 -18 -6 -7 253 -440 270 -450 22 -15 63 -2
144 45 45 27 82 51 82 54 0 17 -37 63 -47 59 -8 -4 -12 3 -11 17 2 25 -140
269 -153 262 -4 -3 -7 3 -7 12 2 19 -101 193 -114 193 -4 0 -5 -15 -2 -32 l6
-33 -16 29 c-12 22 -13 32 -5 42 9 11 -10 51 -90 184 -97 161 -120 195 -106
151 3 -11 1 -22 -5 -26 -6 -4 -11 -1 -9 6 1 8 1 29 0 47 -1 43 -21 41 -91 -8z
m50 -4 c0 -3 -4 -8 -10 -11 -5 -3 -10 -1 -10 4 0 6 5 11 10 11 6 0 10 -2 10
-4z m-36 -67 c-29 -11 -34 -10 -28 5 3 8 13 12 27 8 20 -5 20 -6 1 -13z m-30
-78 c-22 -21 -27 -21 -18 3 3 9 13 16 22 16 13 0 12 -3 -4 -19z m186 -82 c0
-5 -10 -9 -21 -9 -18 0 -19 2 -9 15 12 15 30 12 30 -6z m-116 -43 c-21 -15
-30 -14 -19 3 3 6 14 11 23 11 13 0 13 -2 -4 -14z m171 -56 c8 -13 -5 -13 -25
0 -13 8 -13 10 2 10 9 0 20 -4 23 -10z m-5 -104 c0 -2 -7 -6 -15 -10 -8 -3
-15 -1 -15 4 0 6 7 10 15 10 8 0 15 -2 15 -4z m10 -56 c0 -5 -5 -10 -11 -10
-5 0 -7 5 -4 10 3 6 8 10 11 10 2 0 4 -4 4 -10z m177 -156 c-3 -3 -12 -4 -19
-1 -8 3 -5 6 6 6 11 1 17 -2 13 -5z m66 -52 c-27 -4 -30 -20 -5 -38 9 -7 13
-13 7 -14 -21 0 -38 19 -39 42 -1 21 2 23 29 19 25 -4 26 -6 8 -9z m2 -82 c-3
-5 -11 -10 -16 -10 -6 0 -7 5 -4 10 3 6 11 10 16 10 6 0 7 -4 4 -10z m62 -6
c-3 -3 -12 -4 -19 -1 -8 3 -5 6 6 6 11 1 17 -2 13 -5z m53 -84 c0 -5 -8 -10
-17 -10 -15 0 -16 2 -3 10 19 12 20 12 20 0z"/>
<path d="M16435 3975 c-148 -93 -264 -210 -252 -257 3 -10 1 -21 -4 -24 -17
-10 -10 -141 10 -195 11 -28 73 -140 138 -248 127 -211 184 -279 268 -321 64
-31 165 -32 243 -2 53 20 262 140 262 149 0 3 -23 43 -51 89 -51 85 -55 87
-91 56 -10 -8 -18 -12 -18 -8 0 4 -15 -4 -33 -18 -46 -35 -115 -58 -155 -52
-58 9 -88 42 -195 219 -128 211 -137 228 -137 268 0 35 40 129 54 129 8 0 141
74 155 87 5 3 -27 63 -38 73 -3 3 -17 26 -31 53 -13 26 -31 47 -40 46 -8 0
-46 -20 -85 -44z m164 -101 c3 -2 0 -9 -6 -15 -8 -8 -17 -5 -33 11 l-23 23 29
-7 c16 -4 31 -10 33 -12z m-49 -44 c0 -5 -7 -10 -15 -10 -8 0 -15 5 -15 10 0
6 7 10 15 10 8 0 15 -4 15 -10z m-90 -30 c0 -5 -2 -10 -4 -10 -3 0 -8 5 -11
10 -3 6 -1 10 4 10 6 0 11 -4 11 -10z"/>
<path d="M7769 3533 c-5 -16 -17 -42 -26 -60 -10 -18 -14 -35 -11 -38 4 -4 -2
-15 -13 -26 -26 -26 -24 -38 8 -50 19 -7 28 -6 33 1 5 8 9 7 13 -4 3 -8 25
-25 48 -36 34 -18 43 -19 50 -8 7 10 9 10 9 -2 0 -17 142 -87 166 -82 8 2 14
-1 14 -7 0 -5 15 -15 33 -22 17 -7 35 -14 40 -17 4 -2 7 4 7 13 0 10 7 15 17
13 10 -2 22 6 27 18 5 11 19 25 30 30 12 5 21 16 21 24 1 8 6 24 12 36 7 11 9
25 5 31 -6 9 -45 33 -54 33 -2 0 -4 -21 -6 -46 -3 -46 -27 -98 -42 -89 -13 8
-3 83 13 100 14 13 14 20 4 35 -12 21 -37 35 -37 22 0 -5 5 -13 12 -20 9 -9 8
-12 -4 -12 -14 0 -30 21 -32 44 -2 15 -40 24 -53 14 -9 -8 -13 -6 -13 6 0 9
-4 16 -10 16 -19 0 -10 -31 13 -40 l22 -9 -22 0 c-24 -1 -38 14 -38 43 0 14
-25 31 -105 67 -58 26 -108 48 -113 48 -4 1 -12 -11 -18 -26z m11 -90 c0 -10
-4 -14 -8 -8 -4 6 -11 13 -16 18 -5 4 -2 7 7 7 10 0 17 -8 17 -17z m80 -3 c0
-5 -2 -10 -4 -10 -3 0 -8 5 -11 10 -3 6 -1 10 4 10 6 0 11 -4 11 -10z m107
-41 l-15 -34 3 30 c1 17 3 37 4 45 1 10 4 11 12 3 7 -7 6 -20 -4 -44z m123
-89 c0 -5 -2 -10 -4 -10 -3 0 -8 5 -11 10 -3 6 -1 10 4 10 6 0 11 -4 11 -10z"/>
<path d="M8296 3298 c-9 -12 -16 -27 -16 -33 0 -5 -7 -23 -16 -40 -9 -16 -41
-86 -71 -155 -30 -69 -66 -149 -80 -178 -13 -30 -22 -56 -19 -60 3 -3 6 -2 6
2 0 4 9 2 20 -4 14 -7 20 -7 20 0 0 25 15 7 16 -19 1 -30 -12 -32 -43 -9 -19
15 -51 -26 -89 -115 -19 -45 -40 -92 -46 -104 -6 -12 -8 -29 -4 -38 3 -9 2
-14 -4 -10 -14 9 -61 -100 -54 -122 4 -12 3 -14 -3 -6 -6 9 -16 -2 -31 -38
l-21 -51 62 -28 c46 -21 63 -25 65 -15 2 7 11 11 23 8 15 -4 19 0 19 19 0 28
29 74 30 47 0 -19 32 -30 51 -19 9 6 10 12 1 22 -14 18 0 40 24 36 14 -2 19 3
18 20 0 12 3 22 8 22 4 0 8 -6 8 -12 0 -7 7 0 15 16 20 38 19 46 -6 46 -12 0
-23 -8 -26 -19 -3 -12 -13 -18 -29 -17 -30 1 -31 12 -1 20 12 3 28 14 35 26
11 18 10 20 -8 20 -11 0 -19 3 -18 8 1 4 -6 19 -16 35 -14 21 -16 30 -6 41 6
8 17 12 25 10 7 -3 15 3 18 13 4 16 5 16 6 1 2 -26 21 -22 23 5 2 36 3 41 11
55 5 6 5 12 0 12 -4 0 0 5 10 11 14 8 22 8 30 0 8 -8 7 -11 -5 -11 -22 0 -30
-26 -12 -40 20 -18 18 -43 -4 -36 -12 4 -20 -1 -27 -17 -6 -12 -20 -23 -33
-25 -24 -4 -25 -27 -1 -27 8 0 17 -5 22 -12 12 -18 39 -3 34 18 -3 11 -1 17 4
13 5 -3 9 1 9 8 0 9 3 9 10 -2 7 -11 16 1 40 52 16 37 30 72 30 78 0 6 6 21
14 33 24 36 135 294 138 320 2 13 11 32 21 41 29 30 39 88 21 125 -19 38 -36
32 -27 -11 5 -27 4 -30 -11 -25 -21 8 -35 -21 -16 -33 10 -6 3 -11 -21 -18
-19 -5 -36 -5 -37 0 -2 4 -8 5 -14 2 -6 -4 -9 -1 -6 7 3 8 12 13 22 11 18 -3
20 6 7 27 -5 8 -18 12 -29 9 -16 -5 -19 -1 -18 19 1 24 26 38 57 31 8 -2 14 4
14 12 0 10 -9 14 -25 13 -14 -1 -19 1 -12 3 19 8 14 24 -7 24 -10 0 -21 7 -25
15 -8 22 -33 18 -50 -7z m21 -24 c-3 -3 -12 -4 -19 -1 -8 3 -5 6 6 6 11 1 17
-2 13 -5z m8 -84 c-3 -5 -11 -10 -17 -10 -6 0 -17 -8 -24 -17 -12 -17 -13 -16
-14 4 0 20 6 24 53 32 5 0 5 -3 2 -9z m165 -24 c0 -3 -4 -8 -10 -11 -5 -3 -10
-1 -10 4 0 6 5 11 10 11 6 0 10 -2 10 -4z m-225 -36 c-3 -5 -11 -10 -16 -10
-6 0 -7 5 -4 10 3 6 11 10 16 10 6 0 7 -4 4 -10z m-13 -102 c-9 -9 -9 -15 1
-26 10 -13 9 -14 -10 -3 -27 14 -29 28 -5 34 9 3 19 5 22 6 2 0 -1 -4 -8 -11z
m148 -48 c0 -5 -2 -10 -4 -10 -3 0 -8 5 -11 10 -3 6 -1 10 4 10 6 0 11 -4 11
-10z m-207 -20 c-6 -22 -18 -26 -29 -9 -3 6 0 15 7 20 22 14 28 11 22 -11z
m64 -16 c-3 -3 -12 -4 -19 -1 -8 3 -5 6 6 6 11 1 17 -2 13 -5z m-44 -88 c-3
-16 2 -31 16 -45 25 -25 27 -33 6 -25 -8 4 -22 1 -30 -6 -13 -11 -14 -10 -9 4
4 9 1 16 -6 16 -10 0 -10 3 0 15 6 8 9 19 5 25 -4 6 -1 17 5 25 17 20 18 19
13 -9z m63 -11 c-10 -8 -24 -11 -29 -8 -6 4 -2 10 9 14 31 12 40 9 20 -6z m54
-32 c0 -3 -9 -3 -20 0 -13 3 -20 0 -20 -9 0 -18 -36 -54 -52 -54 -7 0 -4 7 7
16 12 9 19 24 17 36 -2 12 1 18 6 14 6 -4 13 -2 16 3 6 9 46 3 46 -6z m-152
-64 c11 -18 11 -24 -3 -39 -9 -10 -14 -24 -10 -29 3 -6 -1 -11 -9 -11 -20 0
-20 14 -1 34 18 18 19 38 3 54 -7 7 -8 12 -2 12 5 0 15 -9 22 -21z m-48 -82
c0 -6 -3 -8 -6 -4 -3 3 -16 2 -29 -3 -17 -6 -25 -5 -29 5 -3 9 3 15 17 17 28
5 47 -1 47 -15z m-23 -43 c-3 -3 -12 -4 -19 -1 -8 3 -5 6 6 6 11 1 17 -2 13
-5z m-67 -147 c0 -7 -4 -7 -12 1 -7 7 -28 13 -47 13 -31 2 -32 3 -8 6 15 3 25
9 21 15 -4 5 5 2 20 -7 14 -10 26 -22 26 -28z m60 32 c0 -5 5 -7 10 -4 6 3 10
-1 10 -9 0 -25 -14 -25 -33 0 -15 21 -16 24 -2 24 8 0 15 -5 15 -11z m-118
-71 c-9 -9 -15 -9 -24 0 -9 9 -7 12 12 12 19 0 21 -3 12 -12z m2 -66 c2 -4 -7
-9 -20 -10 -15 -1 -22 2 -19 8 7 12 32 13 39 2z m103 2 c-3 -3 -12 -4 -19 -1
-8 3 -5 6 6 6 11 1 17 -2 13 -5z m-177 -19 c0 -8 -4 -15 -10 -15 -5 0 -10 7
-10 15 0 8 5 15 10 15 6 0 10 -7 10 -15z"/>
<path d="M8190 3210 c0 -5 5 -10 10 -10 6 0 10 5 10 10 0 6 -4 10 -10 10 -5 0
-10 -4 -10 -10z"/>
<path d="M8415 3200 c-3 -5 -1 -10 4 -10 6 0 11 5 11 10 0 6 -2 10 -4 10 -3 0
-8 -4 -11 -10z"/>
<path d="M7604 3033 c-40 -89 -44 -102 -38 -117 3 -7 35 -26 72 -41 37 -15 96
-41 131 -57 35 -16 70 -27 78 -24 8 3 12 2 9 -2 -3 -5 18 -18 45 -30 38 -16
49 -18 45 -7 -3 8 -1 17 5 20 5 4 11 -1 14 -9 17 -53 16 -51 25 -36 5 8 7 25
4 36 -3 12 -1 25 5 28 6 4 11 -1 11 -11 0 -16 27 33 51 97 10 23 9 23 -9 7
-23 -21 -32 -22 -32 -1 0 8 4 13 9 10 5 -3 14 1 21 9 11 13 8 15 -18 15 -16 0
-32 6 -35 13 -2 7 -31 23 -63 36 -33 13 -95 40 -139 61 -44 20 -91 40 -105 44
-14 4 -33 10 -42 12 -14 4 -24 -8 -44 -53z m143 -45 c-3 -8 -6 -5 -6 6 -1 11
2 17 5 13 3 -3 4 -12 1 -19z m-102 -24 c10 3 17 -3 21 -20 9 -36 3 -36 -36 4
-19 19 -27 30 -18 23 10 -7 25 -11 33 -7z m145 -4 c0 -5 -5 -10 -11 -10 -5 0
-7 5 -4 10 3 6 8 10 11 10 2 0 4 -4 4 -10z m157 -66 c-3 -3 -12 -4 -19 -1 -8
3 -5 6 6 6 11 1 17 -2 13 -5z m-232 -24 c3 -5 2 -10 -4 -10 -5 0 -13 5 -16 10
-3 6 -2 10 4 10 5 0 13 -4 16 -10z m235 -67 c0 -10 -4 -14 -8 -8 -4 6 -11 13
-16 18 -5 4 -2 7 7 7 10 0 17 -8 17 -17z"/>
<path d="M14240 2982 c-63 -13 -116 -25 -118 -27 -7 -6 118 -539 128 -545 7
-5 8 -9 2 -11 -15 -6 5 -49 23 -49 8 0 15 -4 15 -10 0 -5 -7 -6 -17 -3 -10 4
-14 2 -10 -4 8 -12 66 -10 76 3 3 5 17 10 31 12 14 1 30 9 36 17 6 8 18 15 26
15 9 0 25 8 37 18 l21 17 -65 295 c-36 162 -67 295 -68 296 -1 0 -54 -10 -117
-24z m130 -517 c0 -2 -10 -10 -22 -16 -21 -11 -22 -11 -9 4 13 16 31 23 31 12z
m60 -10 c10 -13 9 -15 -8 -15 -15 0 -20 5 -16 15 4 8 7 15 9 15 1 0 8 -7 15
-15z m-39 -78 c-8 -8 -16 -7 -27 5 -14 14 -14 15 11 10 19 -3 23 -8 16 -15z"/>
<path d="M16630 2880 c0 -5 5 -10 10 -10 6 0 10 5 10 10 0 6 -4 10 -10 10 -5
0 -10 -4 -10 -10z"/>
<path d="M9553 2855 c-18 -8 -33 -19 -33 -25 0 -5 -8 -10 -17 -10 -27 0 -101
-83 -128 -143 -13 -28 -47 -160 -76 -291 -54 -252 -58 -297 -28 -395 19 -62
88 -135 164 -171 72 -34 292 -87 305 -74 12 12 46 181 38 189 -3 3 -16 7 -29
7 -13 1 -28 4 -34 8 -5 3 -23 7 -38 8 -41 3 -135 50 -149 75 -30 56 -28 88 18
297 52 236 56 249 92 283 33 31 109 59 131 48 13 -7 150 -41 165 -41 2 0 7 15
11 33 3 17 13 61 21 96 9 35 12 67 7 72 -4 4 -54 17 -110 28 -118 24 -262 27
-310 6z m227 -145 c0 -5 -2 -10 -4 -10 -3 0 -8 5 -11 10 -3 6 -1 10 4 10 6 0
11 -4 11 -10z m138 -25 c20 -23 21 -25 3 -25 -12 0 -20 9 -23 25 -3 14 -4 25
-3 25 1 0 11 -11 23 -25z m-58 -16 c0 -5 -4 -9 -10 -9 -5 0 -10 7 -10 16 0 8
5 12 10 9 6 -3 10 -10 10 -16z"/>
<path d="M10015 2788 c-34 -143 -85 -385 -85 -401 0 -19 1 -19 19 -3 17 15 19
15 25 1 8 -23 8 -25 -8 -25 -8 0 -21 -9 -29 -20 -8 -11 -17 -17 -22 -12 -4 4
-6 -7 -3 -25 2 -18 1 -30 -2 -28 -10 6 -120 -498 -114 -522 7 -27 32 -37 138
-59 76 -16 88 -16 96 -4 14 22 12 60 -2 60 -8 1 -5 6 5 15 20 15 82 265 74
297 -3 9 -1 18 4 20 8 3 49 173 49 205 0 14 -6 11 -24 -12 l-24 -30 11 36 c8
26 16 35 28 32 19 -5 15 -17 64 207 20 90 33 168 31 174 -3 7 -5 6 -5 -1 -1
-7 -6 -13 -11 -13 -6 0 -1 13 11 29 27 37 20 57 -23 64 -121 19 -167 27 -181
33 -11 4 -18 -1 -22 -18z m195 -38 c0 -5 -5 -10 -11 -10 -5 0 -7 5 -4 10 3 6
8 10 11 10 2 0 4 -4 4 -10z m-61 -24 c10 -12 8 -13 -9 -9 -25 7 -37 23 -17 23
8 0 20 -6 26 -14z m-69 -37 c0 -6 -6 -9 -14 -6 -7 3 -19 0 -25 -6 -8 -8 -11
-8 -11 0 0 12 16 21 38 22 6 1 12 -4 12 -10z m-45 -139 c3 -5 -3 -10 -14 -10
-12 0 -21 5 -21 10 0 6 6 10 14 10 8 0 18 -4 21 -10z m110 -39 c10 -17 -12
-21 -25 -6 -10 12 -10 15 3 15 9 0 18 -4 22 -9z m-35 -119 c0 -15 -2 -15 -10
-2 -13 20 -13 33 0 25 6 -3 10 -14 10 -23z m-75 -72 c3 -6 -1 -7 -9 -4 -18 7
-21 14 -7 14 6 0 13 -4 16 -10z m-30 -50 c3 -5 2 -10 -4 -10 -5 0 -13 5 -16
10 -3 6 -2 10 4 10 5 0 13 -4 16 -10z m39 -329 c-2 -2 -10 2 -19 9 -13 11 -15
8 -16 -16 0 -28 -1 -28 -11 -6 -9 18 -8 25 8 36 16 12 20 12 30 -3 7 -9 11
-18 8 -20z m-54 -51 c0 -5 -4 -10 -9 -10 -6 0 -13 5 -16 10 -3 6 1 10 9 10 9
0 16 -4 16 -10z m35 -39 c3 -5 1 -12 -5 -16 -5 -3 -10 1 -10 9 0 18 6 21 15 7z
m-20 -101 c3 -5 -1 -10 -9 -10 -9 0 -16 5 -16 10 0 6 4 10 9 10 6 0 13 -4 16
-10z"/>
<path d="M13315 2778 c-16 -5 -67 -16 -113 -25 -56 -10 -86 -21 -90 -31 -3 -9
-1 -17 6 -20 6 -2 8 -10 5 -17 -6 -18 198 -945 208 -945 4 0 11 14 14 32 4 17
34 113 67 212 67 202 67 196 24 381 -16 71 -27 101 -38 103 -9 2 -19 10 -22
19 -5 13 -4 14 9 3 9 -7 18 -11 20 -8 5 5 -50 297 -57 303 -2 1 -16 -2 -33 -7z"/>
<path d="M13773 2775 c3 -11 22 -97 42 -191 l37 -171 72 -78 c45 -49 77 -76
84 -71 7 4 10 2 7 -7 -3 -7 3 -21 13 -30 17 -16 20 -15 53 9 46 34 98 56 132
56 16 -1 27 4 25 9 -3 10 -373 402 -433 459 -29 27 -36 30 -32 15z"/>
<path d="M13615 2483 c-55 -164 -110 -324 -122 -357 -28 -78 -28 -85 0 -80 21
4 21 4 2 -6 -12 -6 -30 -32 -42 -58 -27 -60 -115 -323 -110 -328 6 -7 210 38
224 48 6 5 26 55 43 111 17 56 41 124 52 150 10 27 17 55 14 62 -2 7 2 22 10
34 9 12 14 29 12 39 -2 9 3 22 11 28 8 7 15 27 15 47 0 20 4 35 9 34 5 -1 24
41 41 93 l33 95 -41 187 c-23 102 -43 189 -46 192 -3 3 -50 -128 -105 -291z
m-45 -373 c0 -5 -10 -10 -22 -9 -22 0 -22 1 -3 9 11 5 21 9 23 9 1 1 2 -3 2
-9z m45 0 c-3 -5 -14 -10 -23 -10 -15 0 -15 2 -2 10 20 13 33 13 25 0z m3 -50
c-1 -18 3 -23 11 -12 7 11 9 11 14 -2 7 -17 -17 -22 -47 -10 -22 9 -20 30 3
30 11 0 19 -3 19 -6z"/>
<path d="M7390 2644 c-22 -47 -40 -89 -40 -94 0 -9 115 -60 135 -60 7 0 15 -3
17 -7 5 -13 79 -44 89 -38 5 4 9 2 9 -3 0 -14 97 -55 115 -48 9 3 13 2 10 -4
-5 -9 73 -50 93 -50 5 0 56 108 80 171 2 5 -27 23 -65 40 -37 18 -92 43 -122
56 -48 22 -127 57 -249 109 l-33 15 -39 -87z m157 -100 c-3 -3 -12 -4 -19 -1
-8 3 -5 6 6 6 11 1 17 -2 13 -5z m291 -54 c-7 -11 -15 -15 -17 -9 -2 6 3 15
10 20 20 12 21 11 7 -11z"/>
<path d="M11170 2655 c0 -12 372 -1091 378 -1096 4 -4 70 -9 147 -10 l140 -4
23 65 c98 267 184 519 186 537 0 11 4 19 9 16 4 -2 7 0 7 6 0 5 -4 13 -10 16
-15 9 -12 25 3 19 10 -3 22 18 40 67 15 39 24 75 22 79 -3 5 -1 10 4 12 6 1
19 31 30 66 17 56 17 62 2 62 -15 1 -15 1 0 10 13 7 17 26 17 80 l1 70 -113 0
-113 0 -12 -39 c-6 -22 -10 -43 -9 -48 1 -4 -3 -17 -9 -28 -13 -24 -139 -431
-187 -605 -29 -107 -35 -121 -41 -95 -14 61 -66 252 -84 313 l-19 62 93 0 94
0 31 99 c16 54 30 101 30 105 0 3 -70 6 -155 6 l-154 0 -20 68 c-11 37 -26 90
-34 117 l-14 50 -142 3 c-77 1 -141 0 -141 -3z m861 -52 c8 2 11 2 7 0 -5 -3
-8 -19 -9 -36 -1 -29 -2 -30 -8 -8 -8 30 -28 38 -34 14 -3 -10 -5 0 -6 21 -1
37 0 38 18 22 10 -9 24 -15 32 -13z m39 -23 c0 -5 -4 -10 -10 -10 -5 0 -10 5
-10 10 0 6 5 10 10 10 6 0 10 -4 10 -10z m-130 -71 c0 -6 -4 -7 -10 -4 -5 3
-10 11 -10 16 0 6 5 7 10 4 6 -3 10 -11 10 -16z m180 -23 c0 -2 -7 -7 -16 -10
-8 -3 -12 -2 -9 4 6 10 25 14 25 6z m-44 -232 c-3 -8 -11 -14 -18 -14 -9 0 -9
3 0 12 7 7 13 21 13 33 1 17 2 18 6 2 3 -10 2 -25 -1 -33z m-123 5 c4 -16 3
-18 -9 -8 -7 6 -11 15 -8 20 8 13 11 11 17 -12z m67 -133 c0 -3 -4 -8 -10 -11
-5 -3 -10 -1 -10 4 0 6 5 11 10 11 6 0 10 -2 10 -4z"/>
<path d="M8210 2510 c-6 -11 -8 -20 -6 -20 3 0 10 9 16 20 6 11 8 20 6 20 -3
0 -10 -9 -16 -20z"/>
<path d="M14400 2339 c-41 -21 -79 -40 -85 -43 -6 -2 -2 -12 7 -21 14 -15 20
-16 32 -5 9 7 16 8 16 3 0 -5 15 -9 34 -9 27 0 36 5 40 21 3 11 15 26 27 33
18 12 23 12 30 0 7 -10 9 -10 9 2 0 29 -13 60 -24 58 -6 0 -45 -18 -86 -39z"/>
<path d="M8096 2311 c-4 -5 -4 -16 0 -24 4 -10 -3 -14 -23 -15 -45 0 -53 -2
-53 -10 0 -7 52 -42 63 -42 7 0 47 78 47 90 0 13 -27 13 -34 1z"/>
<path d="M14468 2265 c-15 -14 -31 -25 -36 -25 -5 0 -15 -11 -22 -25 -12 -23
-9 -29 75 -120 48 -52 90 -94 92 -92 7 8 -55 260 -69 273 -11 12 -17 10 -40
-11z"/>
<path d="M14224 2256 c-22 -7 -58 -22 -80 -34 -21 -11 -47 -23 -56 -26 -22 -7
-14 -32 13 -39 10 -3 22 -13 26 -24 3 -10 34 -47 68 -83 34 -36 85 -89 112
-119 l50 -55 112 24 c62 13 114 27 116 31 3 4 -52 66 -121 137 -100 104 -131
131 -152 130 -15 0 -38 5 -52 10 l-25 11 25 2 c14 1 31 2 38 2 6 -1 12 3 12 7
0 7 -34 40 -41 39 -2 0 -22 -6 -45 -13z m-8 -64 c5 -4 10 -16 10 -27 0 -17 -6
-20 -38 -17 -43 5 -52 27 -15 42 28 11 30 11 43 2z"/>
<path d="M14160 2169 c0 -5 5 -7 10 -4 6 3 10 8 10 11 0 2 -4 4 -10 4 -5 0
-10 -5 -10 -11z"/>
<path d="M14356 2251 c-4 -5 -2 -12 3 -15 5 -4 12 -2 15 3 4 5 2 12 -3 15 -5
4 -12 2 -15 -3z"/>
<path d="M9265 1910 c4 -6 11 -8 16 -5 14 9 11 15 -7 15 -8 0 -12 -5 -9 -10z"/>
</g>
</svg>
